<svg width="38" height="39" viewBox="0 0 38 39" fill="none" xmlns="http://www.w3.org/2000/svg">
<path fill-rule="evenodd" clip-rule="evenodd" d="M27.6736 16.8385C27.6736 18.2627 26.5149 19.4214 25.0907 19.4214H12.5454C11.1212 19.4214 9.9625 18.2627 9.9625 16.8385V7.98294C9.9625 6.55874 11.1212 5.40007 12.5454 5.40007H14.7593V3.55516C14.7593 2.13097 15.9179 0.97229 17.3421 0.97229H20.294C21.7182 0.97229 22.8769 2.13097 22.8769 3.55516V5.40007H25.0907C26.5149 5.40007 27.6736 6.55874 27.6736 7.98294V16.8385ZM17.3421 3.18618C17.1387 3.18618 16.9731 3.3517 16.9731 3.55516V5.40007H20.663V3.55516C20.663 3.3517 20.4974 3.18618 20.294 3.18618H17.3421ZM12.5454 7.61396C12.3419 7.61396 12.1764 7.77948 12.1764 7.98294V9.36189L18.8181 11.2595L25.4597 9.36182V7.98294C25.4597 7.77948 25.2942 7.61396 25.0907 7.61396H12.5454ZM18.5139 13.4751L12.1764 11.6643V16.8385C12.1764 17.0422 12.3416 17.2075 12.5454 17.2075H25.0907C25.2945 17.2075 25.4597 17.0422 25.4597 16.8385V11.6643L19.1222 13.4751C18.9234 13.5319 18.7127 13.5318 18.5139 13.4751ZM30.9944 11.8203C30.9944 9.98924 32.4842 8.49951 34.3153 8.49951C36.1464 8.49951 37.6361 9.98924 37.6361 11.8203V26.1449C37.6361 27.5006 37.1862 28.843 36.3693 29.9249L30.033 38.3161C29.8237 38.5931 29.4967 38.756 29.1495 38.756H8.48657C8.13944 38.756 7.81237 38.5931 7.60316 38.3161L1.26686 29.9249C0.449936 28.843 0 27.5006 0 26.1449V11.8203C0 9.98924 1.48973 8.49951 3.32083 8.49951C5.15194 8.49951 6.64167 9.98924 6.64167 11.8203V21.1967C7.9441 20.1925 9.82037 20.2864 11.0142 21.4804L18.304 28.7705C18.4908 28.9572 18.6619 29.1555 18.8181 29.3628C18.9743 29.1555 19.1453 28.9572 19.3321 28.7705L26.6219 21.4804C27.8157 20.2864 29.692 20.1925 30.9944 21.1967V11.8203ZM9.03776 36.5421H17.7111V32.684C17.7111 31.8033 17.3612 30.9587 16.7386 30.336L9.44873 23.0459C9.01643 22.6135 8.31551 22.6135 7.88314 23.0458C7.4507 23.4781 7.4507 24.1791 7.88307 24.6115L12.0205 28.7488C12.4528 29.1811 12.4528 29.8819 12.0205 30.3142C11.5882 30.7464 10.8873 30.7465 10.455 30.3142L6.04886 25.9082C5.00346 24.8628 4.42778 23.4729 4.42778 21.9945V11.8203C4.42778 11.21 3.9312 10.7134 3.32083 10.7134C2.71046 10.7134 2.21389 11.21 2.21389 11.8203V26.1449C2.21389 27.0222 2.50502 27.8907 3.03362 28.5908L9.03776 36.5421ZM34.6025 28.5908C35.1311 27.8907 35.4222 27.0221 35.4222 26.1449H35.4221V11.8203C35.4221 11.21 34.9256 10.7134 34.3152 10.7134C33.7048 10.7134 33.2083 11.21 33.2083 11.8203V21.9944C33.2083 23.4729 32.6326 24.8627 31.5872 25.9081L27.181 30.3141C26.7487 30.7464 26.0479 30.7464 25.6156 30.3141C25.1833 29.8818 25.1833 29.1809 25.6156 28.7487L29.753 24.6114C30.1853 24.1791 30.1853 23.478 29.753 23.0457C29.3207 22.6134 28.6197 22.6134 28.1874 23.0458L20.8976 30.3359C20.2749 30.9587 19.925 31.8033 19.925 32.684V36.5421H28.5984L34.6025 28.5908Z" fill="black"/>
</svg>
