<svg width="41" height="40" viewBox="0 0 41 40" fill="none" xmlns="http://www.w3.org/2000/svg">
<path d="M39.8503 9.62967C39.3177 9.27478 38.5984 9.41862 38.2434 9.95103L34.7196 15.2364C34.5336 15.2245 35.5395 15.2284 19.9724 15.2284C19.5298 15.2284 19.1258 15.4805 18.9313 15.8781L16.5818 20.6838C16.1932 21.4787 15.3143 21.917 14.4459 21.75C13.2405 21.5183 12.5417 20.2508 12.9858 19.1088L16.8917 9.0659L22.3454 5.79392C22.4908 5.70671 22.6153 5.58852 22.7102 5.44792L25.1049 1.89468C25.4625 1.36398 25.3222 0.643938 24.7915 0.286351C24.2609 -0.0713142 23.5407 0.0689707 23.183 0.599674L20.9322 3.9394L15.3593 7.28291C15.1388 7.41516 14.9686 7.61693 14.8754 7.85648L14.2614 9.43538C14.1813 9.435 10.2571 9.43508 10.1617 9.43508C9.80966 9.43508 9.47679 9.59506 9.25686 9.86991L4.738 15.5181L1.34034 17.7339C0.804381 18.0835 0.653127 18.8013 1.00276 19.3373C1.35254 19.8736 2.07058 20.0243 2.60638 19.6749L6.15985 17.3575C6.26298 17.2903 6.35468 17.207 6.43169 17.1109L10.7187 11.7524H13.3603L10.8259 18.2689C9.85631 20.7622 11.3857 23.5214 14.0082 24.0256C15.9024 24.3899 17.8169 23.4339 18.6639 21.7015L20.6958 17.5457H34.4954C35.1343 17.5457 35.6541 18.0655 35.6541 18.7044C35.6541 19.3432 35.1343 19.8631 34.4954 19.8631H31.4054C30.7655 19.8631 30.2467 20.3818 30.2467 21.0217C30.2467 21.6616 30.7655 22.1804 31.4054 22.1804H34.4954C35.1343 22.1804 35.6541 22.7002 35.6541 23.339C35.6541 23.9779 35.1343 24.4977 34.4954 24.4977H31.4054C30.7655 24.4977 30.2467 25.0164 30.2467 25.6564C30.2467 26.2963 30.7655 26.815 31.4054 26.815H33.7229C34.3618 26.815 34.8817 27.3348 34.8817 27.9737C34.8817 28.6126 34.3618 29.1324 33.7229 29.1324H31.4054C30.7655 29.1324 30.2467 29.6511 30.2467 30.291C30.2467 30.931 30.7655 31.4497 31.4054 31.4497H32.9504C33.5893 31.4497 34.1092 31.9695 34.1092 32.6084C34.1092 33.2472 33.5893 33.767 32.9504 33.767H28.3155V32.6084C28.3155 30.6917 26.756 29.1324 24.8392 29.1324C23.9495 29.1324 23.1373 29.4686 22.5217 30.0203C21.1998 28.8354 19.2073 28.8367 17.8868 30.0203C17.2713 29.4686 16.459 29.1324 15.5693 29.1324C14.6796 29.1324 13.8673 29.4686 13.2518 30.0203C12.6363 29.4686 11.824 29.1324 10.9343 29.1324C9.01754 29.1324 7.45811 30.6917 7.45811 32.6084V33.767H1.9734C1.33346 33.767 0.814655 34.2858 0.814655 34.9257C0.814655 35.5656 1.33346 36.0843 1.9734 36.0843H7.45811C7.45811 39.2331 11.0505 40.7226 13.2518 38.7497C13.8673 39.3013 14.6796 39.6376 15.5693 39.6376C16.459 39.6376 17.2713 39.3013 17.8868 38.7497C18.5023 39.3013 19.3146 39.6376 20.2043 39.6376C21.0939 39.6376 21.9062 39.3013 22.5217 38.7497C24.7213 40.721 28.3155 39.2359 28.3155 36.0843H32.9504C34.8672 36.0843 36.4266 34.525 36.4266 32.6084C36.4266 31.9088 36.2181 31.2573 35.8611 30.7113C37.2918 29.5916 37.6172 27.5805 36.6336 26.0767C38.2211 24.8341 38.4272 22.5206 37.0836 21.0217C38.3386 19.6217 38.2578 17.478 36.878 16.1767L40.1718 11.2364C40.5267 10.704 40.3828 9.98463 39.8503 9.62967ZM10.9343 37.3203C10.2953 37.3203 9.77551 36.8004 9.77551 36.1616V32.6084C9.77551 31.9695 10.2953 31.4497 10.9343 31.4497C11.5732 31.4497 12.093 31.9695 12.093 32.6084V36.1616C12.093 36.8005 11.5732 37.3203 10.9343 37.3203ZM15.5692 37.3203C14.9303 37.3203 14.4105 36.8004 14.4105 36.1616V32.6084C14.4105 31.9695 14.9303 31.4497 15.5692 31.4497C16.2081 31.4497 16.728 31.9695 16.728 32.6084V36.1616C16.728 36.8005 16.2081 37.3203 15.5692 37.3203ZM20.2042 37.3203C19.5653 37.3203 19.0454 36.8004 19.0454 36.1616V32.6084C19.0454 31.9695 19.5653 31.4497 20.2042 31.4497C20.8431 31.4497 21.3629 31.9695 21.3629 32.6084V36.1616C21.3629 36.8005 20.8431 37.3203 20.2042 37.3203ZM25.9979 36.1616C25.9979 36.8004 25.4781 37.3203 24.8392 37.3203C24.2002 37.3203 23.6804 36.8004 23.6804 36.1616V32.6084C23.6804 31.9695 24.2002 31.4497 24.8392 31.4497C25.4781 31.4497 25.9979 31.9695 25.9979 32.6084V36.1616Z" fill="black"/>
</svg>
