<svg width="41" height="42" viewBox="0 0 41 42" fill="none" xmlns="http://www.w3.org/2000/svg">
<path fill-rule="evenodd" clip-rule="evenodd" d="M3.88438 4.3907C1.29908 6.97568 0.00659561 10.3708 0.00659561 13.7661H0.00038147V35.3744H0.00410843C0.0814552 38.5623 2.65929 41.1399 5.84781 41.2172V41.2209H30.8058V41.2144C30.862 41.2153 30.9186 41.2163 30.9751 41.2163C33.4703 41.2163 35.9655 40.2667 37.865 38.3673C41.3998 34.833 41.6449 29.2366 38.6018 25.415L22.6371 4.3907C20.1326 1.88648 16.8028 0.507324 13.2608 0.507324C9.71876 0.507324 6.38891 1.88648 3.88438 4.3907ZM13.2608 2.89413C16.1651 2.89413 18.8957 4.0251 20.9492 6.07861C25.1886 10.3176 25.1886 17.2147 20.9492 21.4537C18.8957 23.5072 16.1651 24.6382 13.2608 24.6382C10.3565 24.6382 7.6258 23.5072 5.57229 21.4537C1.33263 17.2147 1.33263 10.3176 5.57229 6.07861C7.6258 4.0251 10.3565 2.89413 13.2608 2.89413ZM36.1771 26.277C39.0453 29.145 39.0453 33.8117 36.1771 36.6797C33.3088 39.5476 28.6417 39.5476 25.7732 36.6797C22.9049 33.8117 22.9049 29.145 25.7732 26.277C27.2073 24.8432 29.0915 24.126 30.9751 24.126C32.8593 24.126 34.7426 24.8429 36.1771 26.277ZM9.60227 35.2272C9.60227 37.2161 7.98394 38.8341 5.99473 38.8341C4.00583 38.8341 2.3875 37.2161 2.3875 35.2272C2.3875 33.2383 4.00583 31.6203 5.99473 31.6203C7.98394 31.6203 9.60227 33.2383 9.60227 35.2272ZM5.99473 29.2335C4.64167 29.2335 3.39204 29.6848 2.3875 30.444V21.3571C2.82578 21.9842 3.32464 22.5819 3.88407 23.1413C6.3886 25.6458 9.71876 27.025 13.2608 27.025C16.8025 27.025 20.1326 25.6455 22.6371 23.1413C25.3187 20.46 26.609 16.9065 26.5087 13.3856L32.987 21.9491C29.8724 21.2968 26.4985 22.1765 24.0852 24.5894C20.2864 28.388 20.2864 34.5687 24.0852 38.3673C24.248 38.53 24.4154 38.6853 24.5866 38.8341H10.7789C11.5381 37.8296 11.9894 36.5803 11.9894 35.2272C11.9894 31.9222 9.30035 29.2335 5.99473 29.2335ZM19.3331 13.7661V13.7745C19.3331 14.4337 19.8674 14.9679 20.5265 14.9679C21.186 14.9679 21.7202 14.4337 21.7202 13.7745V13.7661C21.7202 12.2829 21.3304 10.8233 20.593 9.54512C20.2637 8.9742 19.5338 8.7782 18.9629 9.10777C18.3916 9.43703 18.1959 10.1667 18.5252 10.7376C19.0539 11.6539 19.3331 12.701 19.3331 13.7661ZM10.2232 19.0249C11.1405 19.5561 12.1898 19.8372 13.2574 19.8378C13.9165 19.8381 14.4505 20.3727 14.4502 21.0318C14.4499 21.6907 13.9156 22.2246 13.2565 22.2246H13.2558C11.7692 22.2237 10.3071 21.8314 9.02705 21.0902C8.45644 20.7601 8.26168 20.0301 8.59218 19.4595C8.92237 18.8892 9.65264 18.6944 10.2232 19.0249ZM18.5184 16.8062C17.9844 17.7275 17.2147 18.4956 16.2925 19.028C15.7219 19.3579 15.5262 20.0876 15.856 20.6585C16.0769 21.0412 16.4782 21.2552 16.8907 21.2552C17.0932 21.2552 17.2982 21.2036 17.4865 21.0949C18.7693 20.3541 19.8404 19.2849 20.5834 18.0036C20.9142 17.4333 20.72 16.703 20.1497 16.3725C19.5794 16.042 18.8489 16.2362 18.5184 16.8062ZM7.1885 13.7494V13.7661C7.1885 14.8337 7.46899 15.883 7.99984 16.8006C8.32972 17.3712 8.13465 18.1012 7.56404 18.431C7.37612 18.5401 7.17049 18.5916 6.96765 18.5916C6.55546 18.5916 6.15475 18.3779 5.93328 17.9955C5.19276 16.7152 4.80138 15.2528 4.80138 13.7661V13.7494C4.80138 13.0902 5.33565 12.556 5.99479 12.556C6.65424 12.556 7.1885 13.0902 7.1885 13.7494ZM16.3046 8.51076C16.4931 8.62041 16.6994 8.67259 16.9028 8.67259C17.3141 8.67259 17.7145 8.45951 17.936 8.07806C18.2671 7.50808 18.0732 6.77781 17.5033 6.44669C16.2238 5.70399 14.762 5.31013 13.2754 5.30764H13.2732C12.615 5.30764 12.0811 5.84067 12.0798 6.49918C12.0786 7.15832 12.6122 7.69352 13.2714 7.69445C14.3387 7.69631 15.3876 7.97867 16.3046 8.51076ZM10.2351 8.50051C9.31252 9.03198 8.54187 9.79921 8.00667 10.7199C7.7852 11.101 7.38512 11.3138 6.97386 11.3138C6.77009 11.3138 6.56384 11.2613 6.37498 11.1516C5.80531 10.8205 5.61179 10.0899 5.94322 9.52027C6.68777 8.23958 7.76004 7.17167 9.04352 6.4324C9.61506 6.10345 10.3447 6.29976 10.6737 6.87068C11.0026 7.44191 10.8063 8.17156 10.2351 8.50051ZM9.47435 13.7661C9.47435 15.8535 11.1728 17.552 13.2608 17.552C15.3488 17.552 17.0473 15.8535 17.0473 13.7661C17.0473 11.6785 15.3488 9.9803 13.2608 9.9803C11.1728 9.9803 9.47435 11.6785 9.47435 13.7661ZM11.8615 13.7661C11.8615 12.9946 12.4892 12.3671 13.2608 12.3671C14.0324 12.3671 14.6601 12.9946 14.6601 13.7661C14.6601 14.5374 14.0324 15.1652 13.2608 15.1652C12.4892 15.1652 11.8615 14.5374 11.8615 13.7661ZM30.9752 27.6925C33.0631 27.6925 34.7616 29.3909 34.7616 31.4783C34.7616 33.566 33.0628 35.2641 30.9752 35.2641C28.8875 35.2641 27.1887 33.566 27.1887 31.4783C27.1887 29.3909 28.8875 27.6925 30.9752 27.6925ZM30.9752 32.8773C31.7467 32.8773 32.3745 32.2499 32.3745 31.4783C32.3745 30.707 31.7467 30.0793 30.9752 30.0793C30.2036 30.0793 29.5758 30.707 29.5758 31.4783C29.5758 32.2499 30.2036 32.8773 30.9752 32.8773ZM7.18851 34.8293C7.18851 34.1701 6.65424 33.6359 5.99479 33.6359C5.33565 33.6359 4.80138 34.1701 4.80138 34.8293V35.6251C4.80138 36.2842 5.33565 36.8185 5.99479 36.8185C6.65424 36.8185 7.18851 36.2842 7.18851 35.6251V34.8293Z" fill="black"/>
</svg>
