<svg width="43" height="36" viewBox="0 0 43 36" fill="none" xmlns="http://www.w3.org/2000/svg">
<path fill-rule="evenodd" clip-rule="evenodd" d="M37.8303 7.56649H41.5972C42.2906 7.56649 42.8528 8.12867 42.8528 8.82211V34.1855C42.8528 34.879 42.2906 35.4411 41.5972 35.4411H20.0006C19.3072 35.4411 18.745 34.879 18.745 34.1855V29.1931H12.5635V30.8673C12.5635 32.9443 10.8737 34.6341 8.79667 34.6341H3.76676C1.68981 34.6341 0 32.9443 0 30.8673L0.00376799 18.813C0.00544215 16.5444 1.13742 14.5686 3.01708 13.4465C3.11092 13.233 3.28097 12.8399 3.50236 12.3281C4.51598 9.98516 6.60592 5.15422 7.38754 3.6704C8.50344 1.55185 10.5791 0.287109 12.94 0.287109H29.9536C32.3163 0.287109 34.3927 1.55327 35.5081 3.674C35.7778 4.18688 36.0477 4.735 36.317 5.30639H36.5747C37.2682 5.30639 37.8303 5.86857 37.8303 6.562V7.56649ZM35.3191 9.8266V7.81762H26.2787V9.8266H35.3191ZM5.61218 19.149H2.51466L2.5129 21.6602H9.15929C8.68919 20.2974 7.47509 19.149 5.61218 19.149ZM8.79667 32.1229C9.48902 32.1229 10.0523 31.5596 10.0523 30.8673V29.1931H6.27883C4.90284 29.1931 3.59357 28.7501 2.51123 27.9325V30.8673C2.51123 31.5596 3.07442 32.1229 3.76676 32.1229H8.79667ZM16.9126 26.6819H18.745V19.1482H18.1682C17.4759 19.1482 16.9126 19.7115 16.9126 20.4038V26.6819ZM18.1682 16.637H18.745V13.0125C13.1294 13.2146 8.07745 14.043 4.88685 15.3149C4.1781 15.5974 3.59993 16.0585 3.19152 16.6378H5.61218C7.40202 16.6378 9.03055 17.3336 10.1979 18.597C11.2594 19.7457 11.8762 21.3159 11.8901 22.9048C11.893 23.2397 11.762 23.5619 11.5263 23.7997C11.2905 24.0376 10.9695 24.1714 10.6346 24.1714H2.72761C2.91269 24.6923 3.21345 25.1707 3.61726 25.5748C4.3307 26.2887 5.27593 26.6819 6.27883 26.6819H14.4014V20.4038C14.4014 18.3268 16.0912 16.637 18.1682 16.637ZM18.745 10.4999V8.82211C18.745 8.12867 19.3071 7.56649 20.0006 7.56658H23.7674V6.56208C23.7674 5.86865 24.3296 5.30647 25.0231 5.30647H33.5238C33.4442 5.14877 33.3647 4.99357 33.2855 4.84298C32.6022 3.54367 31.3878 2.79842 29.9536 2.79842H12.94C11.507 2.79842 10.2931 3.54283 9.60939 4.84081C8.7574 6.45811 6.74561 11.1733 6.35912 12.0791C6.33569 12.134 6.31824 12.1749 6.30737 12.2003C9.64212 11.2674 14.0225 10.6665 18.745 10.4999ZM21.2562 32.9299H40.3416V10.0777H37.8303V11.0822C37.8303 11.7756 37.2682 12.3378 36.5747 12.3378H25.0231C24.3296 12.3378 23.7674 11.7756 23.7674 11.0822V10.0777H21.2562V32.9299ZM27.766 15.7609L26.2786 17.2482L25.9108 16.8805C25.4205 16.3901 24.6255 16.3901 24.1351 16.8805C23.6447 17.3708 23.6447 18.1658 24.1351 18.6562L25.3907 19.9118C25.6359 20.157 25.9572 20.2796 26.2785 20.2796C26.5998 20.2796 26.9212 20.157 27.1663 19.9118L29.5415 17.5366C30.0319 17.0462 30.0319 16.2512 29.5415 15.7609C29.0514 15.2705 28.2563 15.2705 27.766 15.7609ZM36.5797 16.5807H33.603C32.9096 16.5807 32.3474 17.1429 32.3474 17.8363C32.3474 18.5298 32.9096 19.092 33.603 19.092H36.5797C37.2732 19.092 37.8354 18.5298 37.8354 17.8363C37.8354 17.1429 37.2732 16.5807 36.5797 16.5807ZM26.2786 24.5831L27.766 23.0958C28.2563 22.6054 29.0514 22.6054 29.5415 23.0958C30.0319 23.5861 30.0319 24.3811 29.5415 24.8715L27.1663 27.2467C26.9212 27.4919 26.5998 27.6145 26.2785 27.6145C25.9572 27.6145 25.6359 27.4918 25.3907 27.2467L24.1351 25.991C23.6447 25.5007 23.6447 24.7057 24.1351 24.2154C24.6255 23.725 25.4205 23.725 25.9108 24.2154L26.2786 24.5831ZM36.5797 23.9156H33.603C32.9096 23.9156 32.3474 24.4778 32.3474 25.1712C32.3474 25.8646 32.9096 26.4268 33.603 26.4268H36.5797C37.2732 26.4268 37.8354 25.8646 37.8354 25.1712C37.8354 24.4778 37.2732 23.9156 36.5797 23.9156Z" fill="black"/>
</svg>
