<svg width="41" height="41" viewBox="0 0 41 41" fill="none" xmlns="http://www.w3.org/2000/svg">
<path fill-rule="evenodd" clip-rule="evenodd" d="M31.3801 0.77094C35.1309 0.86474 38.063 4.06838 38.306 7.84806C38.6431 13.0931 34.3689 16.672 28.9272 21.2284C27.9766 22.0243 26.9904 22.8501 25.9869 23.7198C25.77 23.9077 25.5005 24.0018 25.231 24.0018C24.9615 24.0018 24.692 23.9078 24.4751 23.7198C23.5869 22.95 22.7242 22.217 21.895 21.5125C16.0924 16.5826 11.9287 13.0451 12.1462 8.03127C12.3187 4.05299 15.3652 0.863893 19.0817 0.77094C21.3825 0.713307 23.3776 1.75718 24.8511 3.78937C24.9884 3.97858 25.1147 4.16811 25.2309 4.35478C25.3471 4.16811 25.4735 3.97858 25.6107 3.78937C27.0844 1.75718 29.079 0.713922 31.3801 0.77094ZM23.4134 19.7684C23.997 20.2662 24.6036 20.7835 25.2315 21.3234C26.0491 20.6222 26.849 19.9525 27.6201 19.3069C32.5233 15.2016 36.2643 12.0695 36.0025 7.99626C35.8291 5.30001 33.7735 3.14001 31.3226 3.07876C29.8147 3.04128 28.5328 3.71904 27.5167 5.09402C26.6859 6.21823 26.3459 7.39606 26.3425 7.40784C26.2015 7.90446 25.7476 8.2488 25.2316 8.2488H25.2279C24.7104 8.24718 24.2568 7.90307 24.1187 7.40437C24.1163 7.39599 23.7763 6.21815 22.9455 5.09394C21.9294 3.71896 20.6483 3.04098 19.1397 3.07868C16.6315 3.14139 14.5727 5.3608 14.4525 8.1313C14.2853 11.984 17.7791 14.9635 23.4134 19.7684ZM34.1164 25.1048C34.7693 24.404 35.6929 24.002 36.6504 24.002C38.5597 24.002 40.1131 25.5553 40.113 27.4647C40.113 28.22 39.8739 28.938 39.4215 29.541L33.8802 36.9293C32.3625 38.9529 29.9463 40.161 27.4167 40.161H1.87004C1.2326 40.161 0.71582 39.6442 0.71582 39.0068V27.4646C0.71582 26.8272 1.2326 26.3104 1.87004 26.3104H7.20213C7.97523 26.3104 8.76163 26.0245 9.30581 25.5456C12.36 22.8579 17.0088 22.8625 20.0579 25.5456C20.1336 25.6123 20.2034 25.6754 20.2688 25.7345C20.668 26.0955 20.9057 26.3104 21.3624 26.3104H27.4167C28.9686 26.3104 30.2855 27.3369 30.724 28.7465L34.1164 25.1048ZM3.02425 37.8526H5.33269V28.6188H3.02425V37.8526ZM32.0336 35.5442L37.5749 28.1559C37.7252 27.9555 37.8046 27.7165 37.8046 27.4649C37.8046 26.8284 37.2869 26.3106 36.6504 26.3106C36.3265 26.3106 36.0265 26.4412 35.8055 26.6785L30.7241 32.1334C30.0714 32.834 29.1479 33.2359 28.1904 33.2359H20.3931C20.0238 33.2359 19.6741 33.4145 19.4578 33.7136C19.0842 34.2302 18.3626 34.346 17.8461 33.9725C17.3295 33.5989 17.2136 32.8774 17.5872 32.3608C18.2364 31.4632 19.2852 30.9274 20.393 30.9274H27.4167C28.0531 30.9274 28.5709 30.4096 28.5709 29.7731C28.5709 29.1367 28.0531 28.6189 27.4167 28.6189H21.3624C20.0202 28.6189 19.2558 27.9295 18.6924 27.4214C18.6374 27.3719 18.5844 27.324 18.5328 27.2787C16.3374 25.3467 13.0262 25.3466 10.8308 27.2787C9.96902 28.037 8.82596 28.5064 7.64112 28.6004V37.8526H27.4168C29.2236 37.8526 30.9495 36.9897 32.0336 35.5442Z" fill="black"/>
</svg>
