<svg width="41" height="41" viewBox="0 0 41 41" fill="none" xmlns="http://www.w3.org/2000/svg">
<path fill-rule="evenodd" clip-rule="evenodd" d="M20.5105 0.768799C17.944 0.768799 15.8943 2.92352 15.8943 5.46201C15.8943 8.00642 17.9635 10.0767 20.5075 10.0783H14.7402C14.7402 7.53286 12.6693 5.46201 10.1239 5.46201C7.57852 5.46201 5.50766 7.53286 5.50766 10.0783C5.50766 12.6237 7.57852 14.6945 10.1239 14.6945C11.8288 14.6945 13.3197 13.7648 14.1192 12.3864H25.7478C26.5473 13.7648 28.0382 14.6945 29.7431 14.6945C32.2885 14.6945 34.3593 12.6237 34.3593 10.0783C34.3593 7.53286 32.2885 5.46201 29.7431 5.46201C27.1977 5.46201 25.1268 7.53286 25.1268 10.0783H20.5135C23.0576 10.0767 25.1268 8.00642 25.1268 5.46201C25.1268 2.92152 23.0744 0.768799 20.5105 0.768799ZM20.5105 7.77014C19.2378 7.77014 18.2024 6.73471 18.2024 5.46201C18.2024 4.16914 19.2594 3.07693 20.5105 3.07693C21.7617 3.07693 22.8187 4.16914 22.8187 5.46201C22.8187 6.73471 21.7832 7.77014 20.5105 7.77014ZM10.1239 12.3864C8.85122 12.3864 7.81579 11.351 7.81579 10.0783C7.81579 8.80557 8.85122 7.77014 10.1239 7.77014C11.3966 7.77014 12.4321 8.80557 12.4321 10.0783C12.4321 11.351 11.3966 12.3864 10.1239 12.3864ZM29.7431 12.3864C28.4704 12.3864 27.4349 11.351 27.4349 10.0783C27.4349 8.80557 28.4704 7.77014 29.7431 7.77014C31.0158 7.77014 32.0512 8.80557 32.0512 10.0783C32.0512 11.351 31.0158 12.3864 29.7431 12.3864ZM29.7431 14.6945H34.3593C37.5496 14.6945 40.2066 17.2747 40.2066 20.4649V25.0812C40.2066 26.9972 38.5807 28.5434 36.6675 28.5434C36.263 28.5434 35.8745 28.4736 35.5134 28.3456V39.0069C35.5134 39.6442 34.9967 40.161 34.3593 40.161H6.66173C6.02437 40.161 5.50766 39.6442 5.50766 39.0069V28.3456C5.14659 28.4736 4.75805 28.5434 4.35359 28.5434C2.43761 28.5434 0.814453 26.9949 0.814453 25.0812V20.4649C0.814453 17.2747 3.47158 14.6945 6.66173 14.6945H10.1239H13.5861C15.4952 14.6945 17.0483 16.2477 17.0483 18.1567V37.8528H19.3565V27.3893C19.3565 26.7519 19.8732 26.2352 20.5105 26.2352C21.1479 26.2352 21.6646 26.7519 21.6646 27.3893V37.8528H23.9727V18.1567C23.9727 16.2477 25.5259 14.6945 27.4349 14.6945H29.7431ZM12.4321 37.8528H14.7402V18.1567C14.7402 17.5204 14.2225 17.0027 13.5861 17.0027H6.66173C4.74328 17.0027 3.12259 18.5881 3.12259 20.4649V25.0812C3.12259 25.696 3.69785 26.2352 4.35359 26.2352C4.98995 26.2352 5.50766 25.7175 5.50766 25.0812V20.4649C5.50766 19.8275 6.02437 19.3108 6.66173 19.3108C7.29908 19.3108 7.81579 19.8275 7.81579 20.4649V25.0812V37.8528H10.1239V29.6974C10.1239 29.0601 10.6406 28.5434 11.278 28.5434C11.9153 28.5434 12.4321 29.0601 12.4321 29.6974V37.8528ZM36.6675 26.2352C37.3232 26.2352 37.8985 25.696 37.8985 25.0812V20.4649C37.8985 18.5881 36.2778 17.0027 34.3593 17.0027H29.7431H27.4349C26.7986 17.0027 26.2809 17.5204 26.2809 18.1567V37.8528H28.589V29.6974C28.589 29.0601 29.1057 28.5434 29.7431 28.5434C30.3804 28.5434 30.8971 29.0601 30.8971 29.6974V37.8528H33.2053V25.0812V20.4649C33.2053 19.8275 33.722 19.3108 34.3593 19.3108C34.9967 19.3108 35.5134 19.8275 35.5134 20.4649V25.0812C35.5134 25.7175 36.0311 26.2352 36.6675 26.2352Z" fill="black"/>
</svg>
