<svg width="38" height="39" viewBox="0 0 38 39" fill="none" xmlns="http://www.w3.org/2000/svg">
<path fill-rule="evenodd" clip-rule="evenodd" d="M37.0024 20.1559L24.7878 7.94131C24.5171 7.67063 24.1399 7.57187 23.791 7.64406H21.9885V5.84174C22.0608 5.49281 21.962 5.11555 21.6912 4.84473L18.1135 1.26702C17.8783 1.03189 17.5482 0.916409 17.2184 0.953054L3.79333 2.4447L2.45907 1.10277C2.03277 0.674055 1.3395 0.672012 0.910784 1.09832C0.481993 1.52463 0.480022 2.21782 0.906331 2.64661L2.25716 4.00518L0.768511 17.403C0.731793 17.7335 0.847276 18.0629 1.08248 18.298L4.4747 21.6902C4.66654 22.0072 5.0135 22.2198 5.41105 22.2198H7.41287V24.2216C7.41287 24.6191 7.62552 24.9661 7.94248 25.1578L19.9717 37.187C21.2553 38.4706 23.3328 38.4707 24.6165 37.187L37.0026 24.8009C38.2831 23.5202 38.2831 21.4365 37.0024 20.1559ZM35.4543 23.2525L23.068 35.6387C22.6401 36.0665 21.9476 36.0666 21.5197 35.6387L9.60231 23.7213V21.5784L10.8298 20.3508C11.2574 19.9233 11.2574 19.2301 10.8298 18.8026C10.4024 18.375 9.7091 18.375 9.28155 18.8026L8.05402 20.0302H5.91116L3.00269 17.1218L4.23877 5.99817L7.09365 8.86948C6.51069 10.0905 6.72355 11.5996 7.73348 12.6095C9.01701 13.8931 11.0948 13.8932 12.3783 12.6095C13.6589 11.3289 13.6589 9.24527 12.3783 7.96467C11.354 6.94029 9.84422 6.74684 8.64187 7.32104L5.76596 4.42864L16.9372 3.18738L19.7989 6.04905V8.28542L18.5714 9.51303C18.1438 9.94058 18.1438 10.6338 18.5714 11.0613C18.9988 11.4889 19.6921 11.4889 20.1197 11.0613L21.3473 9.83371H23.5836L35.4543 21.7044C35.8812 22.1311 35.8812 22.8257 35.4543 23.2525ZM9.28163 9.51303C9.70947 9.08519 10.4021 9.08497 10.8298 9.51296C11.2568 9.93985 11.2568 10.6344 10.8298 11.0613C10.4021 11.4892 9.70954 11.4892 9.28163 11.0613C8.85473 10.6344 8.85473 9.93985 9.28163 9.51303ZM17.023 12.6097C16.5955 12.1822 15.9023 12.1822 15.4747 12.6097L12.3782 15.7063C11.9507 16.1339 11.9507 16.8271 12.3782 17.2546C12.8057 17.6822 13.4989 17.6822 13.9265 17.2546L17.023 14.158C17.4506 13.7304 17.4506 13.0373 17.023 12.6097ZM23.2162 12.6097L32.5058 21.8994C32.9333 22.327 32.9333 23.0201 32.5058 23.4477L23.2161 32.7374C22.7886 33.1649 22.0953 33.1649 21.6678 32.7374L12.3781 23.4477C11.9506 23.0201 11.9506 22.3269 12.3781 21.8994L21.6679 12.6097C22.0954 12.1821 22.7887 12.1821 23.2162 12.6097ZM14.7006 22.6736L22.442 30.4149L30.1834 22.6736L22.442 14.9322L14.7006 22.6736ZM23.2162 18.8028C22.7888 18.3753 22.0955 18.3753 21.6679 18.8028L18.5713 21.8993C18.1437 22.3269 18.1437 23.0201 18.5713 23.4476C18.9988 23.8752 19.692 23.8752 20.1196 23.4476L23.2162 20.351C23.6437 19.9236 23.6437 19.2304 23.2162 18.8028ZM24.7645 21.8994C25.192 21.4718 25.8853 21.4718 26.3127 21.8994C26.7403 22.3269 26.7403 23.0201 26.3127 23.4477L23.2162 26.5442C22.7887 26.9717 22.0953 26.9717 21.6679 26.5442C21.2404 26.1166 21.2404 25.4235 21.6679 24.9959L24.7645 21.8994Z" fill="black"/>
</svg>
