<svg width="41" height="41" viewBox="0 0 41 41" fill="none" xmlns="http://www.w3.org/2000/svg">
<path fill-rule="evenodd" clip-rule="evenodd" d="M25.9564 23.9879H39.1508C39.7994 23.9879 40.3252 24.5137 40.3251 25.1623V39.333C40.3251 39.9815 39.7993 40.5073 39.1507 40.5073H22.7097C22.0611 40.5073 21.5353 39.9815 21.5353 39.333V25.1623C21.5353 24.7989 21.7006 24.474 21.9599 24.2587C21.0356 23.9686 20.3384 23.9793 19.639 23.99C19.3902 23.9938 19.1411 23.9977 18.8814 23.9879C18.3586 26.0117 16.5174 27.511 14.3326 27.511C12.1478 27.511 10.3066 26.0117 9.78382 23.9879H8.46078C5.22306 23.9879 2.58896 26.622 2.58896 29.8598V39.333C2.58896 39.9815 2.06316 40.5073 1.4146 40.5073C0.766036 40.5073 0.240234 39.9815 0.240234 39.333V29.8598C0.240234 25.3269 3.92797 21.6392 8.46078 21.6392H9.63515V20.1675C8.12061 19.1084 6.94898 17.5385 6.42115 15.6599C4.89549 15.2732 3.76333 13.8885 3.76333 12.2443C3.76333 10.7133 4.74517 9.40797 6.11205 8.92319V8.64291C6.11205 4.1101 9.79979 0.422363 14.3326 0.422363C18.8654 0.422363 22.5532 4.1101 22.5532 8.64291V8.92319C23.92 9.40797 24.9019 10.7133 24.9019 12.2443C24.9019 13.889 23.7689 15.2741 22.2426 15.6603C21.7385 17.4401 20.6277 19.0511 19.0301 20.1637V21.6392C19.1136 21.6524 19.2661 21.6483 19.4752 21.6426H19.4752H19.4752C20.618 21.6117 23.4507 21.535 25.9564 23.9879ZM19.914 6.82226C19.1459 4.47329 16.9349 2.77109 14.3326 2.77109C11.0949 2.77109 8.46078 5.40519 8.46078 8.64291V8.8907C10.0394 8.98026 11.8329 8.41654 13.6578 7.84294C15.7987 7.17002 17.9829 6.48351 19.914 6.82226ZM6.11205 12.2443C6.11205 12.9157 6.67888 13.4475 7.32705 13.4177C7.92089 13.3885 8.44481 13.81 8.54275 14.3978C8.99864 17.1376 11.3839 19.2905 14.3326 19.2905C17.2141 19.2905 19.6491 17.2326 20.1226 14.3972C20.2207 13.8096 20.7437 13.388 21.3382 13.4177C21.9846 13.4475 22.5532 12.9173 22.5532 12.2443C22.5532 11.5968 22.0263 11.0699 21.3788 11.0699C20.7302 11.0699 20.2044 10.5441 20.2044 9.89557V9.36436C18.7961 8.69274 16.7462 9.33743 14.4826 10.0494C12.1165 10.7935 9.517 11.611 7.17235 11.0757C6.57812 11.1333 6.11205 11.6353 6.11205 12.2443ZM11.9839 22.8136C11.9839 24.1087 13.0375 25.1623 14.3326 25.1623C15.6277 25.1623 16.6813 24.1087 16.6813 22.8136V21.2944C15.1215 21.7595 13.4903 21.7468 11.9839 21.3003V22.8136ZM32.1046 26.3367H29.7559V28.6854H32.1046V26.3367ZM23.8841 38.1586H37.9765V26.3367H34.4534V29.8598C34.4534 30.5083 33.9276 31.0341 33.279 31.0341H28.5816C27.933 31.0341 27.4072 30.5083 27.4072 29.8598V26.3367H23.8841V38.1586ZM4.93769 32.2085C4.93769 31.5599 5.46349 31.0341 6.11205 31.0341C6.76062 31.0341 7.28642 31.5599 7.28642 32.2085V39.333C7.28642 39.9815 6.76062 40.5073 6.11205 40.5073C5.46349 40.5073 4.93769 39.9815 4.93769 39.333V32.2085ZM10.8095 31.0341C10.1609 31.0341 9.63515 31.5599 9.63515 32.2085C9.63515 32.857 10.1609 33.3829 10.8095 33.3829H17.8557C18.5043 33.3829 19.0301 32.857 19.0301 32.2085C19.0301 31.5599 18.5043 31.0341 17.8557 31.0341H10.8095ZM9.63515 36.9059C9.63515 36.2574 10.1609 35.7316 10.8095 35.7316H17.8557C18.5043 35.7316 19.0301 36.2574 19.0301 36.9059C19.0301 37.5545 18.5043 38.0803 17.8557 38.0803H10.8095C10.1609 38.0803 9.63515 37.5545 9.63515 36.9059Z" fill="black"/>
</svg>
