<svg width="19" height="19" viewBox="0 0 19 19" fill="none" xmlns="http://www.w3.org/2000/svg">
    <path fill-rule="evenodd" clip-rule="evenodd" d="M16.6252 2.37505H17.8127C18.1277 2.37505 18.4298 2.50016 18.6525 2.72286C18.8752 2.94557 19.0003 3.24762 19.0003 3.56257C19.0003 3.87752 18.8752 4.17957 18.6525 4.40227C18.4298 4.62498 18.1277 4.75009 17.8127 4.75009H16.6252V5.93761C16.6252 6.25257 16.5001 6.55462 16.2774 6.77732C16.0547 7.00002 15.7526 7.12514 15.4376 7.12514C15.1227 7.12514 14.8206 7.00002 14.5979 6.77732C14.3752 6.55462 14.2501 6.25257 14.2501 5.93761V4.75009H13.0625C12.7476 4.75009 12.4455 4.62498 12.2228 4.40227C12.0001 4.17957 11.875 3.87752 11.875 3.56257C11.875 3.24762 12.0001 2.94557 12.2228 2.72286C12.4455 2.50016 12.7476 2.37505 13.0625 2.37505H14.2501V1.18752C14.2501 0.872572 14.3752 0.570521 14.5979 0.347817C14.8206 0.125114 15.1227 0 15.4376 0C15.7526 0 16.0547 0.125114 16.2774 0.347817C16.5001 0.570521 16.6252 0.872572 16.6252 1.18752V2.37505ZM15.635 10.4209C15.5202 10.839 15.2713 11.2079 14.9264 11.4707C14.5816 11.7336 14.16 11.876 13.7264 11.8759H5.71332C5.64859 11.8754 5.58638 11.8508 5.53882 11.8069C5.49125 11.763 5.46174 11.7029 5.45604 11.6384L4.77839 6.3344H8.3123C8.62724 6.3344 8.92928 6.2093 9.15197 5.9866C9.37467 5.76391 9.49977 5.46187 9.49977 5.14693C9.49977 4.83199 9.37467 4.52996 9.15197 4.30726C8.92928 4.08457 8.62724 3.95946 8.3123 3.95946H4.47519L4.26777 2.32787C4.19252 1.68698 3.8846 1.09601 3.40245 0.667122C2.92029 0.238235 2.29747 0.00127854 1.65217 0.00122075H1.18747C0.872535 0.00122075 0.570497 0.126329 0.347802 0.349023C0.125108 0.571717 0 0.873755 0 1.18869C0 1.50363 0.125108 1.80567 0.347802 2.02836C0.570497 2.25106 0.872535 2.37616 1.18747 2.37616H1.65217C1.7169 2.3767 1.77911 2.40132 1.82668 2.44523C1.87424 2.48913 1.90375 2.54918 1.90945 2.61366L3.09693 11.9234C3.17202 12.5646 3.47998 13.1559 3.96231 13.5849C4.44465 14.014 5.06776 14.251 5.71332 14.2509H13.7264C14.6796 14.2503 15.6063 13.937 16.3642 13.3589C17.1221 12.7809 17.6694 11.9701 17.9221 11.051L17.9348 11.0035C17.9832 10.8275 17.9904 10.6428 17.9558 10.4635C17.9213 10.2843 17.8458 10.1154 17.7354 9.97009C17.625 9.82475 17.4825 9.70681 17.3191 9.62546C17.1557 9.5441 16.9758 9.50151 16.7932 9.50099C16.5334 9.50094 16.2808 9.58608 16.074 9.74337C15.8673 9.90066 15.7178 10.1214 15.6485 10.3718L15.635 10.4209ZM15.0416 17.4173C15.0416 18.2919 14.3328 19.0009 13.4583 19.0009C12.5839 19.0009 11.875 18.2919 11.875 17.4173C11.875 16.5427 12.5839 15.8337 13.4583 15.8337C14.3328 15.8337 15.0416 16.5427 15.0416 17.4173ZM7.12585 17.4173C7.12585 18.2919 6.41693 19.0009 5.54245 19.0009C4.66796 19.0009 3.95905 18.2919 3.95905 17.4173C3.95905 16.5427 4.66796 15.8337 5.54245 15.8337C6.41693 15.8337 7.12585 16.5427 7.12585 17.4173Z" fill="#DF2111" />
</svg>