<svg width="20" height="20" viewBox="0 0 20 20" fill="none" xmlns="http://www.w3.org/2000/svg">
<path fill-rule="evenodd" clip-rule="evenodd" d="M16.6582 4.0901C17.4547 4.07272 18.2256 4.37223 18.8014 4.92285C19.1608 5.28033 19.4186 5.72709 19.5481 6.21721C19.6776 6.70732 19.6743 7.22309 19.5384 7.71148L18.5192 11.4179C18.2581 12.3676 17.6925 13.2054 16.9093 13.8027C16.1262 14.4 15.1686 14.7238 14.1837 14.7244H5.90366C5.23661 14.7243 4.59283 14.4792 4.09458 14.0357C3.59633 13.5922 3.27831 12.9811 3.20092 12.3186L1.97388 2.69947C1.96762 2.63284 1.9369 2.57089 1.88766 2.52557C1.83841 2.48025 1.77413 2.45478 1.70721 2.45406H1.22703C0.901602 2.45406 0.589502 2.32479 0.359389 2.09467C0.129276 1.86456 0 1.55246 0 1.22703C0 0.901602 0.129276 0.589502 0.359389 0.359389C0.589502 0.129276 0.901602 0 1.22703 0H1.70721C2.37383 0.000214219 3.01721 0.245012 3.51536 0.687986C4.01352 1.13096 4.33183 1.74132 4.40995 2.40334L4.62509 4.0901H16.6582ZM15.4225 11.8506C15.7786 11.5793 16.0361 11.199 16.1559 10.7676L17.1784 7.06115C17.1951 7.00021 17.1975 6.93624 17.1853 6.87424C17.1731 6.81225 17.1467 6.75392 17.1082 6.70384C17.0697 6.65375 17.0201 6.61327 16.9633 6.58557C16.9065 6.55786 16.8441 6.54369 16.7809 6.54417H4.93839L5.6378 12.0249C5.64369 12.0915 5.67419 12.1536 5.72334 12.1989C5.77249 12.2443 5.83677 12.2698 5.90366 12.2703H14.1837C14.6313 12.2693 15.0664 12.1219 15.4225 11.8506ZM5.72588 19.6326C6.62945 19.6326 7.36193 18.9001 7.36193 17.9965C7.36193 17.093 6.62945 16.3605 5.72588 16.3605C4.82232 16.3605 4.08984 17.093 4.08984 17.9965C4.08984 18.9001 4.82232 19.6326 5.72588 19.6326ZM13.9065 19.6326C14.8101 19.6326 15.5426 18.9001 15.5426 17.9965C15.5426 17.093 14.8101 16.3605 13.9065 16.3605C13.003 16.3605 12.2705 17.093 12.2705 17.9965C12.2705 18.9001 13.003 19.6326 13.9065 19.6326Z" fill="#5B5858"/>
</svg>
