<svg width="10" height="10" viewBox="0 0 10 10" fill="none" xmlns="http://www.w3.org/2000/svg">
<path fill-rule="evenodd" clip-rule="evenodd" d="M9.77189 1.2625L9.05773 0.548333C8.99425 0.484852 8.93077 0.484852 8.86729 0.548333L5.12985 4.28577L1.58288 0.738793C1.51939 0.675312 1.45591 0.675312 1.39243 0.738793L0.67827 1.45296C0.614789 1.51644 0.614789 1.57992 0.67827 1.6434L4.22525 5.19038L0.487786 8.92784C0.424305 8.99132 0.424305 9.0548 0.487786 9.11828L1.20195 9.83244C1.26543 9.89592 1.32891 9.89592 1.39239 9.83244L5.12985 6.09498L8.67689 9.64202C8.74037 9.7055 8.80385 9.7055 8.86733 9.64202L9.58149 8.92785C9.64497 8.86437 9.64497 8.80089 9.58149 8.73741L6.03446 5.19038L9.77189 1.45294C9.83538 1.38946 9.83538 1.32598 9.77189 1.2625Z" fill="black"/>
</svg>
