<svg width="16" height="15" viewBox="0 0 16 15" fill="none" xmlns="http://www.w3.org/2000/svg">
<path d="M13.3189 4.08496C13.1834 3.85021 12.9888 3.65501 12.7544 3.51877C12.5201 3.38253 12.2542 3.30999 11.9831 3.30835H10.0959V1.75513C10.0959 1.54916 10.0141 1.35162 9.86848 1.20598C9.72284 1.06034 9.52531 0.978516 9.31934 0.978516H1.55322C1.14128 0.978516 0.746214 1.14216 0.454928 1.43344C0.163643 1.72473 0 2.1198 0 2.53174V10.2979C0.00027938 10.5702 0.0721804 10.8377 0.20849 11.0736C0.3448 11.3094 0.540725 11.5052 0.776611 11.6414C0.748805 12.3623 1.00851 13.0647 1.4986 13.5941C1.98869 14.1235 2.66901 14.4366 3.38991 14.4644C4.1108 14.4922 4.81322 14.2325 5.34263 13.7424C5.87204 13.2523 6.18508 12.572 6.21289 11.8511H8.62039C8.70626 12.5009 9.02536 13.0973 9.51825 13.5293C10.0111 13.9614 10.6443 14.1996 11.2997 14.1996C11.9551 14.1996 12.5882 13.9614 13.0811 13.5293C13.574 13.0973 13.8931 12.5009 13.979 11.8511C14.3909 11.8511 14.786 11.6874 15.0773 11.3961C15.3686 11.1049 15.5322 10.7098 15.5322 10.2979V7.96802C15.531 7.82634 15.4936 7.68732 15.4235 7.56418L13.3189 4.08496ZM10.0959 4.86157H11.9831L13.381 7.19141H10.0959V4.86157ZM3.49475 12.6277C3.26435 12.6277 3.03913 12.5594 2.84756 12.4314C2.65599 12.3034 2.50668 12.1214 2.41851 11.9086C2.33034 11.6957 2.30727 11.4615 2.35222 11.2355C2.39717 11.0095 2.50811 10.802 2.67103 10.639C2.83395 10.4761 3.04152 10.3652 3.26749 10.3202C3.49346 10.2753 3.72768 10.2984 3.94055 10.3865C4.15341 10.4747 4.33534 10.624 4.46334 10.8156C4.59135 11.0071 4.65967 11.2324 4.65967 11.4628C4.65967 11.7717 4.53694 12.068 4.31847 12.2865C4.10001 12.505 3.80371 12.6277 3.49475 12.6277ZM11.2609 12.6277C11.0305 12.6277 10.8052 12.5594 10.6137 12.4314C10.4221 12.3034 10.2728 12.1214 10.1846 11.9086C10.0965 11.6957 10.0734 11.4615 10.1183 11.2355C10.1633 11.0095 10.2742 10.802 10.4371 10.639C10.6001 10.4761 10.8076 10.3652 11.0336 10.3202C11.2596 10.2753 11.4938 10.2984 11.7067 10.3865C11.9195 10.4747 12.1015 10.624 12.2295 10.8156C12.3575 11.0071 12.4258 11.2324 12.4258 11.4628C12.4258 11.7717 12.303 12.068 12.0846 12.2865C11.8661 12.505 11.5698 12.6277 11.2609 12.6277Z" fill="#A7A4A4"/>
</svg>
