<svg width="97" height="97" viewBox="0 0 97 97" fill="none" xmlns="http://www.w3.org/2000/svg">
<path fill-rule="evenodd" clip-rule="evenodd" d="M95 48.5C95 74.1812 74.1812 95 48.5 95C22.8188 95 2 74.1812 2 48.5C2 22.8188 22.8188 2 48.5 2C74.1812 2 95 22.8188 95 48.5ZM97 48.5C97 75.2858 75.2858 97 48.5 97C21.7142 97 0 75.2858 0 48.5C0 21.7142 21.7142 0 48.5 0C75.2858 0 97 21.7142 97 48.5ZM65.6847 55.1052H36.6077C35.3802 55.1052 34.3815 56.1073 34.3815 57.3388C34.3815 58.5705 35.3802 59.5725 36.6077 59.5725H69.7397C70.3997 59.5725 70.9347 60.1094 70.9347 60.7716C70.9347 61.4337 70.3997 61.9706 69.7397 61.9706H68.0313C69.8991 62.7635 71.213 64.6208 71.213 66.7803C71.213 69.6585 68.8791 72 66.0105 72C63.142 72 60.8081 69.6585 60.8081 66.7803C60.8081 64.6208 62.122 62.7635 63.9898 61.9706H41.0816C42.9494 62.7635 44.2632 64.6208 44.2632 66.7803C44.2632 69.6585 41.9294 72 39.0608 72C36.1922 72 33.8583 69.6585 33.8583 66.7803C33.8583 64.6208 35.1722 62.7635 37.04 61.9706H36.6077C34.0622 61.9706 31.9913 59.8929 31.9913 57.3388C31.9913 54.7849 34.0622 52.7072 36.6077 52.7072H65.6846C66.5196 52.7072 67.2136 52.1602 67.4114 51.3463L71.2835 35.4068H24.1951C23.535 35.4068 23 34.8699 23 34.2078C23 33.5456 23.535 33.0087 24.1951 33.0087H31.3886L30.057 27.3981H25.9978C25.3379 27.3981 24.8028 26.8612 24.8028 26.199C24.8028 25.5369 25.3379 25 25.9978 25H31.0008C31.5542 25 32.0353 25.3811 32.1634 25.9213L33.8456 33.0086H72.8048C73.1716 33.0086 73.5181 33.1776 73.7447 33.467C73.9713 33.7564 74.0529 34.1341 73.9659 34.4916L69.7336 51.9142C69.2771 53.7931 67.6121 55.1052 65.6847 55.1052ZM36.2486 66.7804C36.2486 68.3363 37.5102 69.602 39.0609 69.602C40.6115 69.602 41.8731 68.3363 41.8731 66.7804C41.8731 65.2246 40.6115 63.9588 39.0609 63.9588C37.5102 63.9588 36.2486 65.2246 36.2486 66.7804ZM63.1983 66.7804C63.1983 68.3363 64.4599 69.602 66.0106 69.602C67.5613 69.602 68.8229 68.3363 68.8229 66.7804C68.8229 65.2246 67.5613 63.9588 66.0106 63.9588C64.4599 63.9588 63.1983 65.2246 63.1983 66.7804ZM30.311 40.7739C30.311 41.436 30.8461 41.9729 31.506 41.9729H46.1031C46.7631 41.9729 47.2982 41.436 47.2982 40.7739C47.2982 40.1117 46.7631 39.5748 46.1031 39.5748H31.506C30.8461 39.5748 30.311 40.1117 30.311 40.7739ZM25.0136 48.5391H39.4841C40.144 48.5391 40.6791 48.0023 40.6791 47.3401C40.6791 46.6779 40.144 46.1411 39.4841 46.1411H25.0136C24.3536 46.1411 23.8185 46.6779 23.8185 47.3401C23.8185 48.0023 24.3536 48.5391 25.0136 48.5391Z" fill="#E5E5E5"/>
</svg>
