<svg width="19" height="17" viewBox="0 0 19 17" fill="none" xmlns="http://www.w3.org/2000/svg">
<path d="M16.4091 5.1C16.9215 5.1 17.4224 4.95044 17.8485 4.67025C18.2746 4.39005 18.6067 3.99179 18.8028 3.52584C18.9989 3.05989 19.0502 2.54717 18.9502 2.05252C18.8502 1.55787 18.6035 1.1035 18.2411 0.746879C17.8788 0.390255 17.4171 0.147391 16.9146 0.0489987C16.412 -0.0493936 15.891 0.00110488 15.4176 0.194108C14.9442 0.387112 14.5395 0.713952 14.2548 1.1333C13.9701 1.55264 13.8182 2.04566 13.8182 2.55C13.8182 3.2263 14.0912 3.8749 14.577 4.35312C15.0629 4.83134 15.7219 5.1 16.4091 5.1ZM16.4091 1.7C16.5799 1.7 16.7469 1.74985 16.8889 1.84325C17.0309 1.93665 17.1416 2.0694 17.207 2.22472C17.2724 2.38004 17.2895 2.55094 17.2561 2.71583C17.2228 2.88071 17.1406 3.03217 17.0198 3.15104C16.899 3.26992 16.7451 3.35087 16.5776 3.38367C16.41 3.41646 16.2364 3.39963 16.0786 3.3353C15.9208 3.27096 15.7859 3.16202 15.691 3.02223C15.5961 2.88245 15.5455 2.71811 15.5455 2.55C15.5455 2.32457 15.6364 2.10837 15.7984 1.94896C15.9604 1.78955 16.18 1.7 16.4091 1.7ZM0 2.55C0 2.32457 0.09099 2.10837 0.252953 1.94896C0.414916 1.78955 0.634586 1.7 0.863636 1.7H11.2273C11.4563 1.7 11.676 1.78955 11.838 1.94896C11.9999 2.10837 12.0909 2.32457 12.0909 2.55C12.0909 2.77543 11.9999 2.99163 11.838 3.15104C11.676 3.31045 11.4563 3.4 11.2273 3.4H0.863636C0.634586 3.4 0.414916 3.31045 0.252953 3.15104C0.09099 2.99163 0 2.77543 0 2.55ZM6.04545 5.95C5.51091 5.95148 4.98992 6.11565 4.5539 6.42C4.11788 6.72435 3.78818 7.15398 3.61 7.65H0.863636C0.634586 7.65 0.414916 7.73955 0.252953 7.89896C0.09099 8.05836 0 8.27456 0 8.5C0 8.72543 0.09099 8.94163 0.252953 9.10104C0.414916 9.26044 0.634586 9.35 0.863636 9.35H3.61C3.76844 9.79104 4.04709 10.1807 4.41547 10.4763C4.78384 10.7719 5.22774 10.9621 5.69858 11.0261C6.16943 11.09 6.64907 11.0252 7.08502 10.8388C7.52097 10.6525 7.89643 10.3516 8.1703 9.9693C8.44417 9.58696 8.6059 9.13785 8.6378 8.6711C8.66969 8.20436 8.57052 7.73797 8.35113 7.32298C8.13175 6.90799 7.8006 6.5604 7.39393 6.31824C6.98727 6.07608 6.52076 5.94869 6.04545 5.95ZM6.04545 9.35C5.87464 9.35 5.70767 9.30015 5.56564 9.20675C5.42362 9.11335 5.31292 8.9806 5.24756 8.82528C5.18219 8.66996 5.16509 8.49905 5.19841 8.33417C5.23174 8.16929 5.31399 8.01783 5.43477 7.89896C5.55555 7.78008 5.70944 7.69913 5.87697 7.66633C6.0445 7.63353 6.21814 7.65037 6.37595 7.7147C6.53376 7.77903 6.66864 7.88798 6.76354 8.02776C6.85844 8.16754 6.90909 8.33188 6.90909 8.5C6.90909 8.72543 6.8181 8.94163 6.65614 9.10104C6.49417 9.26044 6.2745 9.35 6.04545 9.35ZM19 8.5C19 8.72543 18.909 8.94163 18.747 9.10104C18.5851 9.26044 18.3654 9.35 18.1364 9.35H11.2273C10.9982 9.35 10.7786 9.26044 10.6166 9.10104C10.4546 8.94163 10.3636 8.72543 10.3636 8.5C10.3636 8.27456 10.4546 8.05836 10.6166 7.89896C10.7786 7.73955 10.9982 7.65 11.2273 7.65H18.1364C18.3654 7.65 18.5851 7.73955 18.747 7.89896C18.909 8.05836 19 8.27456 19 8.5ZM8.63636 14.45C8.63636 14.6754 8.54537 14.8916 8.38341 15.051C8.22145 15.2104 8.00178 15.3 7.77273 15.3H0.863636C0.634586 15.3 0.414916 15.2104 0.252953 15.051C0.09099 14.8916 0 14.6754 0 14.45C0 14.2246 0.09099 14.0084 0.252953 13.849C0.414916 13.6895 0.634586 13.6 0.863636 13.6H7.77273C8.00178 13.6 8.22145 13.6895 8.38341 13.849C8.54537 14.0084 8.63636 14.2246 8.63636 14.45ZM18.1364 13.6H15.39C15.1863 13.0329 14.7854 12.5549 14.2582 12.2505C13.731 11.9461 13.1115 11.835 12.5091 11.9367C11.9068 12.0384 11.3603 12.3465 10.9664 12.8064C10.5724 13.2663 10.3564 13.8485 10.3564 14.45C10.3564 15.0515 10.5724 15.6337 10.9664 16.0936C11.3603 16.5535 11.9068 16.8615 12.5091 16.9633C13.1115 17.065 13.731 16.9538 14.2582 16.6495C14.7854 16.3451 15.1863 15.8671 15.39 15.3H18.1364C18.3654 15.3 18.5851 15.2104 18.747 15.051C18.909 14.8916 19 14.6754 19 14.45C19 14.2246 18.909 14.0084 18.747 13.849C18.5851 13.6895 18.3654 13.6 18.1364 13.6ZM12.9545 15.3C12.7837 15.3 12.6168 15.2501 12.4747 15.1567C12.3327 15.0633 12.222 14.9306 12.1566 14.7753C12.0913 14.62 12.0742 14.4491 12.1075 14.2842C12.1408 14.1193 12.2231 13.9678 12.3439 13.849C12.4646 13.7301 12.6185 13.6491 12.7861 13.6163C12.9536 13.5835 13.1272 13.6004 13.285 13.6647C13.4429 13.729 13.5777 13.838 13.6726 13.9778C13.7675 14.1175 13.8182 14.2819 13.8182 14.45C13.8182 14.6754 13.7272 14.8916 13.5652 15.051C13.4033 15.2104 13.1836 15.3 12.9545 15.3Z" fill="black"/>
</svg>
