<svg width="13" height="13" viewBox="0 0 13 13" fill="none" xmlns="http://www.w3.org/2000/svg">
<circle cx="6.5" cy="6.5" r="6.5" fill="#C4C4C4"/>
<path fill-rule="evenodd" clip-rule="evenodd" d="M9.40024 5.35C9.79076 4.95948 9.79076 4.32631 9.40024 3.93579C9.00971 3.54526 8.37655 3.54526 7.98602 3.93579L6.66775 5.25406L5.34968 3.93599C4.95916 3.54546 4.326 3.54546 3.93547 3.93599C3.54495 4.32651 3.54495 4.95968 3.93547 5.3502L5.25354 6.66827L3.93665 7.98516C3.54613 8.37568 3.54613 9.00885 3.93665 9.39937C4.32717 9.7899 4.96034 9.7899 5.35086 9.39937L6.66775 8.08248L7.98484 9.39957C8.37537 9.7901 9.00853 9.7901 9.39906 9.39957C9.78958 9.00905 9.78958 8.37588 9.39906 7.98536L8.08197 6.66827L9.40024 5.35Z" fill="white"/>
</svg>
