<svg width="13" height="15" viewBox="0 0 13 15" fill="none" xmlns="http://www.w3.org/2000/svg">
    <path fill-rule="evenodd" clip-rule="evenodd" d="M1.84574 1.84574C3.02565 0.665839 4.62535 0.00206189 6.29399 0C7.96263 0.00206189 9.56233 0.665839 10.7422 1.84574C11.9221 3.02565 12.5859 4.62535 12.588 6.29399C12.588 7.98857 11.2692 10.3503 8.66832 13.3127C8.37158 13.6499 8.0064 13.92 7.5971 14.105C7.1878 14.2901 6.74377 14.3858 6.29459 14.3858C5.84541 14.3858 5.40138 14.2901 4.99208 14.105C4.58278 13.92 4.2176 13.6499 3.92086 13.3127C1.31874 10.3497 0 7.98797 0 6.29399C0.0020621 4.62535 0.665839 3.02565 1.84574 1.84574ZM6.85169 12.4562C7.02764 12.3796 7.1859 12.2675 7.31661 12.127C9.52431 9.61242 10.7897 7.48625 10.7861 6.29459C10.7861 5.10225 10.3124 3.95875 9.46934 3.11564C8.62623 2.27254 7.48273 1.79888 6.29039 1.79888C5.09806 1.79888 3.95456 2.27254 3.11145 3.11564C2.26834 3.95875 1.79469 5.10225 1.79469 6.29459C1.79469 7.48625 3.06367 9.61242 5.27137 12.127C5.40208 12.2675 5.56034 12.3796 5.73629 12.4562C5.91223 12.5329 6.10208 12.5724 6.29399 12.5724C6.4859 12.5724 6.67575 12.5329 6.85169 12.4562ZM4.84101 4.07029C5.27109 3.78292 5.77673 3.62953 6.29399 3.62953C6.98737 3.63033 7.65212 3.90612 8.14242 4.39642C8.63271 4.88671 8.9085 5.55146 8.9093 6.24484C8.9093 6.7621 8.75591 7.26774 8.46854 7.69782C8.18116 8.12791 7.77271 8.46312 7.29483 8.66106C6.81694 8.85901 6.29109 8.9108 5.78377 8.80989C5.27645 8.70898 4.81045 8.45989 4.44469 8.09414C4.07894 7.72838 3.82985 7.26238 3.72894 6.75506C3.62803 6.24774 3.67982 5.72189 3.87777 5.24401C4.07571 4.76612 4.41092 4.35767 4.84101 4.07029ZM5.84008 6.92417C5.97444 7.01394 6.1324 7.06186 6.29399 7.06186C6.51063 7.0617 6.71835 6.97557 6.87154 6.82238C7.02472 6.6692 7.11085 6.46148 7.11101 6.24484C7.11101 6.08325 7.0631 5.92528 6.97332 5.79093C6.88354 5.65657 6.75594 5.55185 6.60665 5.49001C6.45736 5.42817 6.29309 5.41199 6.1346 5.44352C5.97611 5.47504 5.83053 5.55286 5.71627 5.66712C5.60201 5.78138 5.5242 5.92696 5.49267 6.08545C5.46115 6.24393 5.47733 6.40821 5.53916 6.5575C5.601 6.70679 5.70572 6.83439 5.84008 6.92417Z" fill="white" />
</svg>