<svg width="44" height="56" viewBox="0 0 44 56" fill="none" xmlns="http://www.w3.org/2000/svg">
<path d="M36.6891 5.82793C34.5322 3.82497 32.0047 2.28096 29.2546 1.28644C26.5046 0.291915 23.5874 -0.133112 20.6741 0.0362742C17.7607 0.205661 14.9099 0.966052 12.2887 2.27287C9.66751 3.57969 7.3287 5.40663 5.4094 7.64659C3.49009 9.88655 2.02892 12.4944 1.11154 15.3174C0.194162 18.1403 -0.16096 21.1215 0.0669967 24.0861C0.294953 27.0508 1.1014 29.9392 2.43906 32.5821C3.77671 35.2249 5.61866 37.5691 7.85691 39.477C12.974 43.8125 17.2495 49.0858 20.4625 55.0244C20.6196 55.3202 20.8524 55.5671 21.1361 55.7388C21.4198 55.9106 21.7439 56.0009 22.0739 56C22.4036 55.9998 22.7272 55.9087 23.0102 55.7363C23.2932 55.5639 23.5252 55.3166 23.6815 55.0207L23.8313 54.734C27.0674 48.8672 31.3341 43.6565 36.4187 39.3616C38.775 37.2865 40.6699 34.7232 41.9771 31.8426C43.2843 28.9621 43.9737 25.8306 43.9993 22.6571C44.0248 19.4836 43.3861 16.341 42.1255 13.439C40.8649 10.5369 39.0116 7.94224 36.6891 5.82793ZM22.0739 31.7974C20.2672 31.7974 18.5012 31.2514 16.999 30.2286C15.4968 29.2057 14.326 27.7519 13.6347 26.0509C12.9433 24.35 12.7624 22.4783 13.1149 20.6726C13.4673 18.8669 14.3373 17.2083 15.6148 15.9064C16.8923 14.6046 18.5199 13.718 20.2918 13.3588C22.0637 12.9996 23.9004 13.184 25.5695 13.8885C27.2386 14.5931 28.6652 15.7862 29.6689 17.317C30.6726 18.8478 31.2084 20.6476 31.2084 22.4887C31.2055 24.9566 30.2421 27.3226 28.5297 29.0676C26.8173 30.8127 24.4956 31.7944 22.0739 31.7974Z" fill="#DF2111"/>
</svg>
