<svg width="12" height="15" viewBox="0 0 12 15" fill="none" xmlns="http://www.w3.org/2000/svg">
<path d="M6 0.692017C4.40934 0.693715 2.88433 1.30759 1.7595 2.39898C0.634683 3.49037 0.00190936 4.97014 0 6.51367C0 8.01284 1.19627 10.359 3.55576 13.4868C3.83665 13.8602 4.20442 14.164 4.62916 14.3734C5.05389 14.5829 5.52358 14.692 6 14.692C6.47642 14.692 6.94611 14.5829 7.37084 14.3734C7.79558 14.164 8.16335 13.8602 8.44424 13.4868C10.8037 10.359 12 8.01284 12 6.51367C11.9981 4.97014 11.3653 3.49037 10.2405 2.39898C9.11567 1.30759 7.59066 0.693715 6 0.692017ZM6 8.83417C5.52442 8.83417 5.05952 8.69732 4.66409 8.44093C4.26866 8.18454 3.96046 7.82013 3.77847 7.39377C3.59647 6.96741 3.54885 6.49825 3.64163 6.04563C3.73441 5.59301 3.96343 5.17725 4.29971 4.85093C4.636 4.52461 5.06445 4.30238 5.53089 4.21235C5.99733 4.12231 6.48081 4.16852 6.92019 4.34513C7.35957 4.52173 7.73511 4.8208 7.99932 5.20451C8.26354 5.58823 8.40457 6.03935 8.40457 6.50084C8.40457 7.11968 8.15123 7.71317 7.70029 8.15075C7.24934 8.58834 6.63773 8.83417 6 8.83417Z" fill="black"/>
</svg>
