<svg width="21" height="23" viewBox="0 0 21 23" fill="none" xmlns="http://www.w3.org/2000/svg">
<path fill-rule="evenodd" clip-rule="evenodd" d="M3.81491 2.91843C5.68054 1.0528 8.20993 0.00326019 10.8483 0C13.4867 0.00326019 16.0161 1.0528 17.8817 2.91843C19.7474 4.78405 20.7969 7.31345 20.8002 9.95184C20.8002 12.6312 18.715 16.3656 14.6025 21.0496C14.1333 21.5827 13.5559 22.0098 12.9088 22.3024C12.2616 22.5949 11.5595 22.7463 10.8493 22.7463C10.139 22.7463 9.43696 22.5949 8.78979 22.3024C8.14262 22.0098 7.56521 21.5827 7.09601 21.0496C2.98163 16.3646 0.896484 12.6303 0.896484 9.95184C0.899745 7.31345 1.94929 4.78405 3.81491 2.91843ZM11.7301 19.6954C12.0083 19.5742 12.2586 19.397 12.4653 19.1748C15.956 15.1988 17.9568 11.837 17.9511 9.95278C17.9511 8.0675 17.2022 6.25944 15.8691 4.92635C14.536 3.59325 12.7279 2.84433 10.8426 2.84433C8.95736 2.84433 7.14929 3.59325 5.8162 4.92635C4.4831 6.25944 3.73418 8.0675 3.73418 9.95278C3.73418 11.837 5.74066 15.1988 9.23139 19.1748C9.43806 19.397 9.6883 19.5742 9.9665 19.6954C10.2447 19.8165 10.5449 19.8791 10.8483 19.8791C11.1518 19.8791 11.4519 19.8165 11.7301 19.6954ZM8.55091 6.4358C9.23095 5.98142 10.0305 5.73889 10.8483 5.73889C11.9447 5.74015 12.9957 6.17622 13.771 6.95146C14.5462 7.72669 14.9823 8.77777 14.9835 9.87412C14.9835 10.692 14.741 11.4915 14.2866 12.1715C13.8323 12.8516 13.1864 13.3816 12.4308 13.6946C11.6752 14.0076 10.8437 14.0894 10.0416 13.9299C9.23942 13.7703 8.5026 13.3765 7.92428 12.7982C7.34595 12.2198 6.95211 11.483 6.79255 10.6809C6.633 9.8787 6.71489 9.04725 7.02787 8.29163C7.34086 7.53602 7.87088 6.89019 8.55091 6.4358ZM10.1306 10.9482C10.3431 11.0902 10.5928 11.166 10.8483 11.166C11.1909 11.1657 11.5193 11.0295 11.7615 10.7873C12.0037 10.5451 12.1399 10.2167 12.1402 9.87412C12.1402 9.61861 12.0644 9.36885 11.9225 9.15641C11.7805 8.94396 11.5787 8.77839 11.3427 8.68061C11.1066 8.58283 10.8469 8.55725 10.5963 8.6071C10.3457 8.65694 10.1155 8.77998 9.93485 8.96065C9.75418 9.14131 9.63115 9.3715 9.5813 9.62209C9.53146 9.87268 9.55704 10.1324 9.65481 10.3685C9.75259 10.6045 9.91817 10.8063 10.1306 10.9482Z" fill="#C4C4C4"/>
</svg>
