<svg width="20" height="21" viewBox="0 0 20 21" fill="none" xmlns="http://www.w3.org/2000/svg">
    <path d="M19.6325 18.6839L16.1955 15.0715C17.586 13.4186 18.3478 11.3389 18.3478 9.1739C18.3478 4.11549 14.2323 0 9.1739 0C4.11549 0 0 4.11549 0 9.1739C0 14.2323 4.11549 18.3478 9.1739 18.3478C11.0729 18.3478 12.8826 17.775 14.4298 16.6877L17.9078 20.3428C18.1355 20.5793 18.4419 20.7098 18.7701 20.7098C19.0809 20.7098 19.3756 20.5913 19.5994 20.3759C20.0748 19.9184 20.09 19.1598 19.6325 18.6839ZM9.1739 2.39319C12.9129 2.39319 15.9546 5.43494 15.9546 9.1739C15.9546 12.9129 12.9129 15.9546 9.1739 15.9546C5.43494 15.9546 2.39319 12.9129 2.39319 9.1739C2.39319 5.43494 5.43494 2.39319 9.1739 2.39319Z" fill="#E5E5E5" />
</svg>