<svg width="14" height="14" viewBox="0 0 14 14" fill="none" xmlns="http://www.w3.org/2000/svg">
<path fill-rule="evenodd" clip-rule="evenodd" d="M9.76589 3.64503V0.198242H12.5233L13.7871 5.94288V6.51735C13.7871 7.12678 13.545 7.71125 13.1141 8.14218C12.6832 8.57311 12.0987 8.81521 11.4893 8.81521H10.9148C10.5886 8.81538 10.2662 8.74592 9.96896 8.61149C9.67176 8.47706 9.40668 8.28074 9.19143 8.03566C8.97618 8.28074 8.71109 8.47706 8.41389 8.61149C8.11669 8.74592 7.79422 8.81538 7.46803 8.81521H6.31911C5.99172 8.81415 5.6684 8.74271 5.37104 8.60573C5.07369 8.46875 4.80927 8.26943 4.59571 8.0213C4.38215 8.26943 4.11773 8.46875 3.82038 8.60573C3.52303 8.74271 3.1997 8.81415 2.87232 8.81521H2.29786C1.68843 8.81521 1.10396 8.57311 0.673027 8.14218C0.242095 7.71125 0 7.12678 0 6.51735L0.0137871 5.81823L1.26382 0.198242H4.02125V3.64503H5.17018V0.198242H8.61696V3.64503H9.76589ZM9.19118 9.5011C9.71498 9.8042 10.3094 9.9639 10.9146 9.96411H11.489C12.0947 9.96384 12.6894 9.80287 13.2124 9.49765V12.262C13.2124 12.719 13.0309 13.1574 12.7077 13.4806C12.3845 13.8038 11.9461 13.9854 11.489 13.9854H2.29761C1.84054 13.9854 1.40219 13.8038 1.07899 13.4806C0.75579 13.1574 0.574219 12.719 0.574219 12.262V9.49707C1.09714 9.80273 1.69191 9.96391 2.29761 9.96411H2.87208C3.47809 9.9634 4.07297 9.80119 4.59547 9.4942C5.11799 9.80114 5.71286 9.96334 6.31886 9.96411H7.46779C8.07296 9.9639 8.66739 9.8042 9.19118 9.5011Z" fill="#A7A4A4"/>
</svg>
