<svg width="20" height="20" viewBox="0 0 20 20" fill="none" xmlns="http://www.w3.org/2000/svg">
<path d="M15.8333 11.6668C14.601 11.6714 13.4348 12.2246 12.6516 13.176L8.15162 11.1443C8.26608 10.7735 8.32725 10.3883 8.3333 10.0002C8.32791 9.61634 8.26873 9.23514 8.15748 8.86772L12.6525 6.82609C14.1342 8.56984 16.749 8.78229 18.4928 7.30065C20.2366 5.819 20.449 3.20426 18.9673 1.46051C17.4856 -0.283236 14.8708 -0.495731 13.127 0.985953C12.1942 1.77855 11.6597 2.94302 11.6667 4.16701C11.6667 4.28533 11.6917 4.39701 11.7017 4.51282L6.74999 6.76027C6.01999 6.1654 5.10835 5.83838 4.16667 5.83361C1.8655 5.83361 0 7.69904 0 10.0002C0 12.3014 1.86547 14.1668 4.16667 14.1668C5.10429 14.1629 6.01257 13.8396 6.74167 13.2501L11.7017 15.4892C11.6917 15.6051 11.6667 15.7159 11.6667 15.8334C11.6667 18.1345 13.5321 20 15.8333 20C18.1345 20 20 18.1346 20 15.8334C20 13.5323 18.1345 11.6668 15.8333 11.6668ZM15.8333 2.50041C16.7538 2.50041 17.5 3.2466 17.5 4.16705C17.5 5.0875 16.7538 5.83369 15.8333 5.83369C14.9128 5.83369 14.1666 5.0875 14.1666 4.16705C14.1666 3.2466 14.9128 2.50041 15.8333 2.50041ZM4.16667 11.6668C3.2462 11.6668 2.49999 10.9206 2.49999 10.0002C2.49999 9.07975 3.2462 8.33355 4.16667 8.33355C5.08714 8.33355 5.83335 9.07975 5.83335 10.0002C5.83335 10.9206 5.08714 11.6668 4.16667 11.6668ZM15.8333 17.5001C14.9128 17.5001 14.1666 16.7539 14.1666 15.8334C14.1666 14.9129 14.9128 14.1668 15.8333 14.1668C16.7538 14.1668 17.5 14.9129 17.5 15.8334C17.5 16.7539 16.7538 17.5001 15.8333 17.5001Z" fill="#C4C4C4"/>
</svg>
