<svg width="22" height="22" viewBox="0 0 22 22" fill="none" xmlns="http://www.w3.org/2000/svg">
<path d="M16.0341 21.9975C8.55473 22.2074 -4.68587 8.97041 1.68111 1.7763C1.70406 1.7543 2.68338 0.901899 2.68338 0.901899C3.29802 0.334494 4.10618 0.0224915 4.94318 0.0294739C5.78018 0.0364563 6.58302 0.361898 7.18808 0.939478L9.16325 3.06407C9.74506 3.67128 10.0668 4.48112 10.0601 5.32149C10.0534 6.16186 9.71885 6.96651 9.12745 7.5644L8.77134 7.92553C9.83192 10.2709 11.7083 12.1526 14.0525 13.2214L14.4297 12.8548C15.0416 12.2729 15.8541 11.9483 16.6991 11.9483C17.544 11.9483 18.3566 12.2729 18.9684 12.8548L21.0216 14.7567C21.6298 15.35 21.9788 16.159 21.9929 17.0079C22.007 17.8568 21.685 18.6769 21.0969 19.29C21.0969 19.29 20.2433 20.2671 20.2212 20.29C19.6712 20.8372 19.0179 21.2699 18.2991 21.563C17.5804 21.8561 16.8105 22.0038 16.0341 21.9975ZM3.59754 3.75791C-0.862194 9.27379 13.4128 22.706 18.2415 18.3771C18.2415 18.3771 19.0896 17.4065 19.1125 17.3845C19.1985 17.2985 19.2469 17.182 19.2469 17.0605C19.2469 16.9389 19.1985 16.8224 19.1125 16.7365L17.0584 14.8355C16.7831 14.6064 16.6279 14.6036 16.3728 14.7988L15.3301 15.8236C15.1421 16.0083 14.9048 16.1352 14.6466 16.1892C14.3883 16.2431 14.12 16.2218 13.8735 16.1279C12.0421 15.4473 10.3787 14.3815 8.99586 13.0026C7.61307 11.6238 6.5433 9.96421 5.85907 8.13634C5.75948 7.88822 5.73448 7.61648 5.78713 7.35439C5.83978 7.09231 5.9678 6.85123 6.15552 6.66067L7.17248 5.62862C7.21879 5.58754 7.25601 5.53725 7.28175 5.48099C7.30749 5.42472 7.32118 5.36371 7.32196 5.30185C7.32274 5.24 7.31058 5.17866 7.28626 5.12177C7.26194 5.06487 7.226 5.01367 7.18074 4.97144L5.20374 2.84685C5.11626 2.77384 5.00415 2.73698 4.89035 2.74379C4.77655 2.75061 4.66966 2.80059 4.59154 2.88351C4.56952 2.90642 3.59754 3.75791 3.59754 3.75791ZM22 8.70736C21.9973 6.39884 21.0778 4.18564 19.4432 2.55327C17.8086 0.920905 15.5923 0.00266839 13.2806 0C12.9155 0 12.5653 0.144849 12.3071 0.402683C12.0489 0.660517 11.9039 1.01021 11.9039 1.37485C11.9039 1.73948 12.0489 2.08917 12.3071 2.34701C12.5653 2.60484 12.9155 2.74969 13.2806 2.74969C14.8623 2.75163 16.3786 3.37994 17.497 4.49679C18.6154 5.61365 19.2446 7.12788 19.2465 8.70736C19.2465 9.07199 19.3916 9.42169 19.6498 9.67952C19.9079 9.93735 20.2581 10.0822 20.6233 10.0822C20.9884 10.0822 21.3386 9.93735 21.5968 9.67952C21.8549 9.42169 22 9.07199 22 8.70736ZM17.4109 8.70736C17.4096 7.61383 16.9741 6.56545 16.1998 5.79221C15.4255 5.01897 14.3757 4.58403 13.2806 4.58282C12.9155 4.58282 12.5653 4.72767 12.3071 4.9855C12.0489 5.24334 11.9039 5.59303 11.9039 5.95766C11.9039 6.3223 12.0489 6.67199 12.3071 6.92983C12.5653 7.18766 12.9155 7.33251 13.2806 7.33251C13.6458 7.33251 13.9959 7.47736 14.2541 7.73519C14.5123 7.99303 14.6574 8.34272 14.6574 8.70736C14.6574 9.07199 14.8024 9.42169 15.0606 9.67952C15.3188 9.93735 15.669 10.0822 16.0341 10.0822C16.3992 10.0822 16.7494 9.93735 17.0076 9.67952C17.2658 9.42169 17.4109 9.07199 17.4109 8.70736Z" fill="#C4C4C4"/>
</svg>
