<svg width="20" height="20" viewBox="0 0 20 20" fill="none" xmlns="http://www.w3.org/2000/svg">
    <g clip-path="url(#clip0_601_3144)">
        <path d="M9.10527 11.1456C5.71681 11.4519 3.13528 14.315 3.18027 17.717V17.8895C3.18027 18.5482 3.71423 19.0821 4.3729 19.0821C5.03157 19.0821 5.56553 18.5482 5.56553 17.8895V17.6693C5.52968 15.5805 7.07116 13.7993 9.14343 13.5348C11.3309 13.3179 13.2801 14.9154 13.497 17.1029C13.5098 17.2322 13.5163 17.362 13.5164 17.492V17.8895C13.5164 18.5482 14.0504 19.0821 14.709 19.0821C15.3677 19.0821 15.9017 18.5482 15.9017 17.8895V17.492C15.8978 13.9751 13.0436 11.1272 9.52679 11.1311C9.38617 11.1313 9.24559 11.1361 9.10527 11.1456Z" fill="#5B5858" />
        <path d="M9.54104 9.54107C12.1757 9.54107 14.3116 7.40521 14.3116 4.77053C14.3116 2.13586 12.1757 0 9.54104 0C6.90637 0 4.77051 2.13586 4.77051 4.77053C4.77312 7.40413 6.90745 9.53842 9.54104 9.54107ZM9.54104 2.38527C10.8584 2.38527 11.9263 3.4532 11.9263 4.77053C11.9263 6.08787 10.8584 7.1558 9.54104 7.1558C8.2237 7.1558 7.15578 6.08787 7.15578 4.77053C7.15578 3.4532 8.2237 2.38527 9.54104 2.38527Z" fill="#5B5858" />
    </g>
    <defs>
        <clipPath id="clip0_601_3144">
            <rect width="19.0821" height="19.0821" fill="white" />
        </clipPath>
    </defs>
</svg>