<svg width="7" height="14" viewBox="0 0 7 14" fill="none" xmlns="http://www.w3.org/2000/svg">
    <path d="M0.501953 0.0922852H3.66311C4.69174 0.0922852 5.46321 0.36826 5.97753 0.920208C6.49184 1.47216 6.749 2.28126 6.749 3.34752V10.0085C6.749 11.0748 6.49184 11.8839 5.97753 12.4358C5.46321 12.9878 4.69174 13.2638 3.66311 13.2638H0.501953V0.0922852ZM3.62548 11.3821C3.96417 11.3821 4.22133 11.2818 4.39695 11.0811C4.58511 10.8804 4.6792 10.5542 4.6792 10.1026V3.25344C4.6792 2.80185 4.58511 2.4757 4.39695 2.27499C4.22133 2.07428 3.96417 1.97393 3.62548 1.97393H2.57176V11.3821H3.62548Z" fill="#A7A4A4" />
</svg>