<svg width="512" height="512" viewBox="0 0 512 512" fill="none" xmlns="http://www.w3.org/2000/svg">
<g clip-path="url(#clip0_316_2565)">
<path fill-rule="evenodd" clip-rule="evenodd" d="M0 331.225H148.015L189.392 181H60.6445C50.0425 181 38.9839 189.672 36.0675 200.274L0 331.225ZM97.2354 209.572C68.9505 209.572 58.6811 212.039 51.2962 220.407C45.5295 226.99 44.0904 234.259 44.0904 256.204C44.0904 271.978 44.4476 277.049 46.4308 283.361C48.7712 291.178 54.1753 296.529 62.8258 299.406C70.7484 302.013 77.4189 302.695 97.5942 302.695C114.891 302.695 122.1 302.01 129.842 299.539C138.666 296.662 144.435 291.171 146.776 283.223C148.579 276.5 148.937 272.8 148.937 254.42C148.937 241.524 148.758 237.546 147.855 233.156C145.514 222.872 140.29 216.56 130.736 212.992C123.714 210.386 115.965 209.563 97.2267 209.563L97.2346 209.571L97.2354 209.572ZM130.385 268.687C130.385 278.016 127.679 284.871 122.999 287.616C118.855 289.951 113.453 290.632 96.6984 290.632C78.1396 290.632 72.2018 289.809 68.4136 286.514C63.5465 282.263 62.6468 277.737 62.6468 256.199C62.6468 240.703 63.1893 235.074 64.6284 231.096C67.871 223.28 73.0952 221.635 94.7152 221.635C112.372 221.635 117.416 222.045 121.738 223.97C127.505 226.437 130.383 232.889 130.383 243.172V255.93V268.687H130.385ZM161.473 331.226H309.496L350.873 181H202.851L161.473 331.226ZM234.53 222.189H295.784V210.393H216.157V301.88H296.141V290.084H234.53V260.32H293.08V249.486H234.53V222.195V222.189V222.189ZM451.702 331.226H322.954H322.947L364.324 181H512.347L476.279 311.952C473.363 322.554 462.304 331.226 451.702 331.226ZM441.599 210.395H463.133L463.132 210.394L463.142 210.393V301.88H450.497V240.84V240.839C450.497 235.489 450.497 235.488 450.995 221.499H450.617C450.107 223.154 449.643 224.663 449.22 226.04C447.048 233.108 445.946 236.692 445.107 238.646L421.943 301.879H409.924L386.512 239.336C385.512 236.591 384.628 234.125 382.753 227.813L380.878 222.052H380.627C380.998 231.514 381.125 237.826 381.125 240.842V301.883H368.481V210.395H389.637L408.169 260.872C410.045 266.223 410.422 267.317 415.554 283.23H415.932L418.936 273.901C420.51 268.846 421.988 264.455 422.906 261.726C423.009 261.42 423.105 261.135 423.193 260.872L441.599 210.395Z" fill="black"/>
</g>
<defs>
<clipPath id="clip0_316_2565">
<rect width="512" height="512" fill="white"/>
</clipPath>
</defs>
</svg>
