<svg width="512" height="151" viewBox="0 0 512 151" fill="none" xmlns="http://www.w3.org/2000/svg">
<path fill-rule="evenodd" clip-rule="evenodd" d="M0 150.225H148.015L189.392 0H60.6445C50.0425 0 38.9839 8.67172 36.0675 19.2735L0 150.225ZM97.2354 28.5721C68.9505 28.5721 58.6811 31.0392 51.2962 39.407C45.5295 45.9904 44.0904 53.2587 44.0904 75.2037C44.0904 90.9775 44.4476 96.0485 46.4308 102.361C48.7712 110.178 54.1753 115.529 62.8258 118.406C70.7484 121.013 77.4189 121.695 97.5942 121.695C114.891 121.695 122.1 121.01 129.842 118.539C138.666 115.662 144.435 110.171 146.776 102.223C148.579 95.4996 148.937 91.8001 148.937 73.4201C148.937 60.5239 148.758 56.546 147.855 52.156C145.514 41.8717 140.29 35.5596 130.736 31.9923C123.714 29.386 115.965 28.5634 97.2267 28.5634L97.2346 28.5713L97.2354 28.5721ZM130.385 87.687C130.385 97.0159 127.679 103.871 122.999 106.616C118.855 108.951 113.453 109.632 96.6984 109.632C78.1396 109.632 72.2018 108.809 68.4136 105.514C63.5465 101.263 62.6468 96.7367 62.6468 75.199C62.6468 59.7028 63.1893 54.0742 64.6284 50.0963C67.871 42.2798 73.0952 40.6354 94.7152 40.6354C112.372 40.6354 117.416 41.0451 121.738 42.9704C127.505 45.4375 130.383 51.8887 130.383 62.1723V74.9301V87.687H130.385ZM161.473 150.226H309.496L350.873 0.00038761H202.851L161.473 150.226ZM234.53 41.1887H295.784V29.3928H216.157V120.88H296.141V109.084H234.53V79.3204H293.08V68.4855H234.53V41.1951V41.1895V41.1887ZM451.702 150.226H322.954H322.947L364.324 0.00038761H512.347L476.279 130.952C473.363 141.554 462.304 150.226 451.702 150.226ZM441.599 29.3951H463.133L463.132 29.3944L463.142 29.3928V120.88H450.497V59.8401V59.8391C450.497 54.489 450.497 54.4882 450.995 40.4989H450.617C450.107 42.1541 449.643 43.6633 449.22 45.0403C447.048 52.1079 445.946 55.6916 445.107 57.6459L421.943 120.879H409.924L386.512 58.3356C385.512 55.5909 384.628 53.1254 382.753 46.8134L380.878 41.0519H380.627C380.998 50.5136 381.125 56.8264 381.125 59.8424V120.883H368.481V29.3951H389.637L408.169 79.8717C410.045 85.2228 410.422 86.3167 415.554 102.23H415.932L418.936 92.9008C420.51 87.8458 421.988 83.4551 422.906 80.7262C423.009 80.42 423.105 80.1347 423.193 79.8717L441.599 29.3951Z" fill="black"/>
</svg>
