<svg width="69" height="18" viewBox="0 0 69 18" fill="none" xmlns="http://www.w3.org/2000/svg">
<path d="M34.7725 15.6835H32.2539V17.5125H34.7725V15.6835Z" fill="black"/>
<path d="M39.7042 17.6693C43.2992 17.6693 43.665 15.9448 43.665 15.161V15.1401H41.2718C41.2195 15.3595 40.9896 16.1747 39.4116 16.1747H39.3802C38.0321 16.1747 37.5931 15.4222 37.5931 14.6698V14.5966C37.5931 13.8859 38.0216 13.2066 39.3802 13.2066H39.4116C41.0105 13.2066 41.2195 14.0009 41.2718 14.2204H43.665V14.189C43.665 13.4365 43.2261 11.733 39.7146 11.733H39.1189C35.9106 11.733 35.2104 13.3111 35.2104 14.5653V14.7743C35.2104 16.0284 35.921 17.6693 39.1294 17.6693H39.7042Z" fill="black"/>
<path d="M49.2535 15.0147C49.2535 15.6835 48.4488 16.3524 47.2051 16.3524C46.4109 16.3524 46.181 16.018 46.181 15.7149V15.7044C46.181 15.3804 46.4318 15.2759 47.0275 15.1819L49.2535 14.837V15.0147ZM49.3162 16.7391C49.3998 17.2721 49.7551 17.5125 50.2045 17.5125H52.0961V15.9866H51.793C51.5526 15.9866 51.5004 15.8717 51.5004 15.7044V13.5515C51.5004 12.7363 51.2914 11.733 48.0307 11.733H47.456C44.3208 11.733 44.1013 12.8931 44.1013 13.6351V13.656H46.2646C46.2959 13.4679 46.3482 13.0289 47.7381 13.0289H47.7904C49.1594 13.0289 49.2535 13.2798 49.2535 13.4888C49.2535 13.6665 49.1594 13.7501 48.8982 13.7814L46.3273 14.0218C44.6447 14.1786 43.9654 14.6698 43.9654 15.7044V15.7776C43.9654 16.7391 44.6865 17.617 46.5781 17.617H46.714C48.3652 17.617 49.0758 17.0422 49.3162 16.7391Z" fill="black"/>
<path d="M52.5553 17.5125H54.9381L58.4704 13.9695V17.5125H60.8009V11.8898H58.4181L54.8858 15.4327V11.8898H52.5553V17.5125ZM56.8819 11.4299C58.6063 11.4299 59.0974 10.2907 59.0974 9.75772V9.73682H57.3626C57.3626 9.86223 57.2581 10.2489 56.7251 10.2489C56.1817 10.2489 56.0772 9.86223 56.0772 9.73682H54.3006V9.75772C54.3006 10.2907 54.6455 11.4299 56.5475 11.4299H56.8819Z" fill="black"/>
<path d="M63.8729 17.5125H66.2034V13.4365H68.5548V11.8898H61.5215V13.4365H63.8729V17.5125Z" fill="black"/>
<path d="M32.3187 6.88795H34.6478V2.73379H36.9977V1.15733H29.9688V2.73379H32.3187V6.88795Z" fill="black"/>
<path d="M42.054 7.04773C45.5215 7.04773 46.0751 5.40737 46.0751 4.08655V3.89482C46.0751 2.59532 45.4797 0.997559 42.054 0.997559H41.3125C38.0539 0.997559 37.281 2.57401 37.281 3.89482V4.08655C37.281 5.40737 38.0643 7.04773 41.3229 7.04773H42.054ZM41.6885 5.50323C40.101 5.50323 39.6623 4.6937 39.6623 4.02264V3.96939C39.6623 3.24507 40.101 2.52075 41.6885 2.52075H41.6989C43.2656 2.52075 43.7147 3.25572 43.7147 3.96939V4.02264C43.7147 4.6937 43.276 5.50323 41.6885 5.50323Z" fill="black"/>
<path d="M46.7005 6.88795H49.0295V2.73379H51.9748V6.88795H54.3039V1.15733H46.7005V6.88795Z" fill="black"/>
<path d="M5.56915 5.2006V6.77849H7.91909V1.26611H2.88201C1.2381 1.26611 0.289699 1.96284 0.289699 3.16163V3.26409C0.289699 4.19649 0.900893 4.81125 2.00737 5.02642L0.121094 6.77849H2.80824L4.48376 5.2006H5.56915ZM5.56915 2.61859V3.79689H3.52481C2.7977 3.79689 2.63964 3.49975 2.63964 3.23336V3.19237C2.63964 2.93622 2.7977 2.61859 3.51428 2.61859H5.56915Z" fill="black"/>
<path d="M10.2051 3.41748H28.7589V5.29976H10.2051V3.41748Z" fill="black"/>
</svg>
