<svg width="19" height="12" viewBox="0 0 19 12" fill="none" xmlns="http://www.w3.org/2000/svg">
    <path d="M15.7603 6.48645C15.4551 6.10105 15.5424 5.92959 15.7603 5.58509C15.7642 5.58116 18.2835 2.10001 18.543 0.919438L18.5446 0.918652C18.6736 0.488423 18.5446 0.172241 17.9209 0.172241H15.857C15.3316 0.172241 15.0894 0.443592 14.9596 0.74719C14.9596 0.74719 13.9088 3.26249 12.4223 4.89295C11.9425 5.36408 11.7207 5.51509 11.4588 5.51509C11.3298 5.51509 11.1292 5.36408 11.1292 4.93385V0.918652C11.1292 0.402692 10.9822 0.172241 10.5472 0.172241H7.30202C6.97247 0.172241 6.77662 0.412917 6.77662 0.637077C6.77662 1.12629 7.51989 1.23877 7.59696 2.61518V5.60161C7.59696 6.256 7.4782 6.37634 7.21471 6.37634C6.51314 6.37634 4.81031 3.85081 3.8012 0.960337C3.59749 0.399546 3.3985 0.173028 2.86917 0.173028H0.804551C0.215445 0.173028 0.0966797 0.444378 0.0966797 0.747976C0.0966797 1.28438 0.798258 3.95149 3.35918 7.47511C5.06593 9.8803 7.46955 11.1836 9.65608 11.1836C10.9704 11.1836 11.1308 10.8941 11.1308 10.3963C11.1308 8.09804 11.012 7.88096 11.6704 7.88096C11.9755 7.88096 12.5009 8.03197 13.7279 9.19209C15.1303 10.5677 15.3607 11.1836 16.1457 11.1836H18.2095C18.7978 11.1836 19.0959 10.8941 18.9245 10.3231C18.532 9.12209 15.8798 6.65162 15.7603 6.48645Z" fill="#A7A4A4" />
</svg>