<svg width="34" height="34" viewBox="0 0 34 34" fill="none" xmlns="http://www.w3.org/2000/svg">
<path d="M16.9358 0H16.9273C7.59168 0 0 7.5938 0 16.9315C0 20.6353 1.19367 24.0682 3.22334 26.8556L1.11325 33.1456L7.62131 31.0652C10.2986 32.8387 13.4923 33.8631 16.9358 33.8631C26.2714 33.8631 33.8631 26.2672 33.8631 16.9315C33.8631 7.59592 26.2714 0 16.9358 0Z" fill="#04D341"/>
<path d="M26.7863 23.91C26.3778 25.0635 24.7566 26.0201 23.4635 26.2995C22.5788 26.4878 21.4232 26.6381 17.5332 25.0254C12.5574 22.9639 9.35314 17.9078 9.1034 17.5797C8.86424 17.2517 7.09277 14.9024 7.09277 12.4727C7.09277 10.0431 8.32666 8.85996 8.82402 8.35202C9.2325 7.93508 9.90764 7.7446 10.5553 7.7446C10.7648 7.7446 10.9532 7.75518 11.1225 7.76365C11.6198 7.78481 11.8696 7.81444 12.1976 8.59964C12.6061 9.58379 13.6008 12.0135 13.7194 12.2632C13.84 12.5129 13.9606 12.8516 13.7913 13.1796C13.6326 13.5183 13.4929 13.6685 13.2432 13.9564C12.9934 14.2442 12.7564 14.4643 12.5066 14.7733C12.2781 15.0421 12.0199 15.3299 12.3077 15.8273C12.5955 16.3141 13.5903 17.9374 15.0548 19.2411C16.9448 20.9237 18.4771 21.4613 19.0253 21.6898C19.4338 21.8592 19.9205 21.819 20.219 21.5015C20.5978 21.093 21.0655 20.4157 21.5417 19.7491C21.8804 19.2708 22.3079 19.2115 22.7566 19.3808C23.2137 19.5395 25.6328 20.7353 26.1302 20.983C26.6276 21.2327 26.9556 21.3512 27.0762 21.5607C27.1948 21.7703 27.1948 22.7544 26.7863 23.91Z" fill="#FAFAFA"/>
</svg>
