<svg width="24" height="20" viewBox="0 0 24 20" fill="none" xmlns="http://www.w3.org/2000/svg">
    <path fill-rule="evenodd" clip-rule="evenodd" d="M13.6573 14.5484H8.57179C7.7584 14.5484 7.34071 14.2039 7.23079 13.4052C6.97432 11.4193 6.72517 9.42616 6.48335 7.44031L6.48335 7.4403L6.48335 7.44029C6.37343 6.53164 6.26351 5.62299 6.13894 4.71434C6.12428 4.60442 6.05833 4.48717 5.98505 4.41389C5.51607 3.93025 5.03243 3.44661 4.54879 2.97763C4.46085 2.89702 4.31429 2.8384 4.19705 2.8384C3.65692 2.83002 3.11918 2.83122 2.58111 2.83242C2.17748 2.83331 1.77366 2.83421 1.36849 2.83107C0.789584 2.82374 0.305944 2.39873 0.21801 1.86379C0.130075 1.28489 0.437846 0.735297 0.980109 0.559427C1.14132 0.508132 1.32452 0.486149 1.49306 0.486149C2.03899 0.482485 2.58492 0.482485 3.12993 0.482485C3.67494 0.482485 4.21903 0.482485 4.7613 0.478821C5.16433 0.478821 5.50874 0.610723 5.79453 0.903838C6.05438 1.17036 6.31727 1.43233 6.57974 1.6939C6.8946 2.00766 7.20886 2.32083 7.51658 2.64055C7.65581 2.7871 7.79504 2.8384 7.99289 2.8384C12.7633 2.83107 17.5338 2.83107 22.3116 2.8384C22.5754 2.8384 22.8685 2.90435 23.0957 3.0216C23.6013 3.29273 23.7625 3.88629 23.5427 4.48717C23.0957 5.68894 22.6487 6.88339 22.1943 8.08516C21.8466 9.00765 21.5006 9.93196 21.1547 10.8563L21.1538 10.8588L21.153 10.8609C20.807 11.7853 20.461 12.7098 20.1132 13.6324C19.8567 14.3139 19.5123 14.5557 18.7869 14.5557C17.0795 14.5484 15.3647 14.5484 13.6573 14.5484ZM9.44347 12.2007L9.44353 12.2012L9.44381 12.2034C9.46911 12.2057 9.49152 12.208 9.51172 12.2101L9.51173 12.2101C9.5559 12.2146 9.58952 12.2181 9.61968 12.2181C12.3896 12.2181 15.1669 12.2181 17.9368 12.2254C18.1418 12.2254 18.1832 12.1163 18.2384 11.9705L18.2446 11.9543C18.9554 10.0637 19.6662 8.1731 20.3697 6.2825C20.427 6.12652 20.4843 5.97192 20.5422 5.8157L20.5422 5.81563L20.5426 5.81449C20.6179 5.61149 20.6941 5.40574 20.7727 5.19065H8.56447C8.85747 7.54199 9.15047 9.87136 9.44347 12.2007ZM9.58321 16.9006C10.2281 16.9079 10.7557 17.4429 10.7483 18.0804C10.741 18.7179 10.1987 19.2529 9.56855 19.2455C8.9237 19.2382 8.40342 18.7033 8.40342 18.0657C8.41074 17.4209 8.93835 16.8933 9.58321 16.9006ZM18.9629 18.0951C18.9702 17.4502 18.4573 16.9153 17.8197 16.9006C17.1602 16.886 16.618 17.4062 16.618 18.0584C16.6106 18.6886 17.1383 19.2309 17.7758 19.2455C18.406 19.2602 18.9482 18.7326 18.9629 18.0951Z" fill="#A7A4A4" />
</svg>