<svg width="24" height="20" viewBox="0 0 24 20" fill="none" xmlns="http://www.w3.org/2000/svg">
    <path fill-rule="evenodd" clip-rule="evenodd" d="M18.7295 2.66078C18.0753 2.66243 17.4221 2.66407 16.7656 2.65914C16.1996 2.65914 15.7511 2.27404 15.6261 1.71861C15.5085 1.20762 15.7658 0.652187 16.2584 0.430015C16.4569 0.341147 16.6847 0.296712 16.8979 0.296712C18.7799 0.289307 20.6692 0.289307 22.5512 0.289307C23.3084 0.289307 23.8304 0.778084 23.8304 1.47422C23.8304 2.17036 23.3084 2.65914 22.5512 2.65914H19.7135C19.3849 2.65914 19.0571 2.65996 18.7296 2.66078H18.7296H18.7295ZM12.6699 12.3003C12.729 12.3375 12.7878 12.3746 12.8328 12.4199C13.224 12.8121 13.6146 13.2042 14.0052 13.5963C15.1782 14.7738 16.3502 15.9502 17.5304 17.1225C17.8465 17.4484 18.023 17.8039 17.9421 18.2704C17.7804 19.1443 16.7879 19.5368 16.0822 19.0036C15.9793 18.9295 15.8837 18.8333 15.7955 18.7444C14.1782 17.1225 12.5535 15.4933 10.9435 13.8566C10.7891 13.7011 10.6862 13.6641 10.4804 13.7678C6.16508 15.9228 1.04113 13.1827 0.372152 8.37639C-0.171854 4.43655 2.63639 0.778128 6.54736 0.34119C10.451 -0.103153 13.965 2.71102 14.3693 6.64346C14.5751 8.62819 14.0311 10.3982 12.7814 11.946C12.7299 12.0052 12.6785 12.0718 12.6271 12.1384L12.6271 12.1384L12.627 12.1384L12.627 12.1385C12.6196 12.1459 12.6196 12.1607 12.6196 12.1681L12.5608 12.2274C12.595 12.2532 12.6325 12.2768 12.6699 12.3003ZM2.6511 7.39884C2.6511 10.0131 4.78301 12.1533 7.37072 12.1459C9.95843 12.1385 12.0609 10.0131 12.0683 7.40625C12.0683 4.79203 9.95107 2.65918 7.34867 2.66659C4.76096 2.66659 2.6511 4.79203 2.6511 7.39884ZM20.2797 7.39878H22.6469C23.1321 7.39878 23.4923 7.1766 23.7055 6.73967C24.0804 5.98428 23.5584 5.06597 22.7204 5.05116C21.3736 5.03266 20.0319 5.03984 18.6868 5.04703H18.6867C18.4166 5.04848 18.1463 5.04992 17.8758 5.05116C17.7876 5.05116 17.692 5.07338 17.6038 5.0956C17.0598 5.26593 16.7069 5.80655 16.7804 6.35457C16.8613 6.96184 17.3097 7.39137 17.9052 7.39878C18.4399 7.40372 18.9681 7.40206 19.4941 7.40042H19.4942C19.7564 7.3996 20.018 7.39878 20.2797 7.39878ZM21.8761 9.77448C22.1334 9.77283 22.3918 9.77118 22.6469 9.77612C23.2865 9.78352 23.7864 10.2501 23.8379 10.8574C23.8746 11.5239 23.4556 12.0867 22.794 12.1237C21.9191 12.1756 21.0443 12.1682 20.1768 12.1237C19.5299 12.0867 19.0962 11.5091 19.1403 10.8796C19.177 10.2649 19.6769 9.79093 20.3092 9.77612C20.5735 9.77119 20.8347 9.77282 21.0969 9.77447C21.2284 9.77529 21.3601 9.77612 21.4927 9.77612C21.6199 9.77612 21.7479 9.7753 21.8761 9.77448Z" fill="#A7A4A4" />
</svg>