<svg width="22" height="21" viewBox="0 0 22 21" fill="none" xmlns="http://www.w3.org/2000/svg">
    <path d="M21.1806 7.4162C18.0956 5.11873 15.017 2.80876 11.9384 0.511287C11.4902 0.180401 11.0161 0.180401 10.5745 0.511287C7.48289 2.82125 4.39781 5.12497 1.31274 7.43493C1.01397 7.65344 0.871082 7.94063 0.871082 8.30273C0.864587 11.9362 0.864587 15.576 0.871082 19.2095C0.871082 19.4093 0.942526 19.6278 1.04644 19.8026C1.26078 20.146 1.618 20.2459 2.03367 20.2459C5.09926 20.2396 8.17135 20.2459 11.2369 20.2459C14.322 20.2459 17.4071 20.2459 20.4922 20.2459C21.2326 20.2459 21.6353 19.8525 21.6353 19.1471C21.6353 15.5573 21.6353 11.9675 21.6418 8.37765C21.6483 7.97184 21.5119 7.65969 21.1806 7.4162ZM13.3218 18.2356C11.9384 18.2356 10.5745 18.2356 9.19105 18.2356C9.19105 16.2502 9.19105 14.2774 9.19105 12.2734C10.5745 12.2734 11.9449 12.2734 13.3218 12.2734C13.3218 14.2649 13.3218 16.2378 13.3218 18.2356ZM19.5699 17.9546C19.5699 18.042 19.5699 18.1232 19.5699 18.2293C18.1865 18.2293 16.8161 18.2293 15.4067 18.2293C15.4067 18.1357 15.4067 18.042 15.4067 17.9421C15.4067 15.7633 15.3872 13.5907 15.4132 11.4118C15.4197 10.6439 14.8676 10.2381 14.1921 10.2443C12.2307 10.2693 10.2627 10.2506 8.30125 10.2506C7.50237 10.2506 7.09969 10.6314 7.09969 11.3931C7.09969 13.5719 7.09969 15.7446 7.09969 17.9234C7.09969 18.0171 7.09969 18.1107 7.09969 18.2231C5.71628 18.2231 4.34585 18.2231 2.94945 18.2231C2.94295 18.1482 2.93646 18.067 2.93646 17.9858C2.93646 14.9766 2.93646 11.9612 2.94296 8.95202C2.94296 8.84588 3.00141 8.70229 3.08584 8.63986C5.76174 6.62957 8.45063 4.61928 11.133 2.61523C11.172 2.59025 11.211 2.56528 11.2629 2.53407C12.0163 3.09595 12.7632 3.65783 13.5167 4.21347C15.4651 5.66812 17.4071 7.12902 19.3621 8.57743C19.5244 8.69605 19.5764 8.81467 19.5764 9.00821C19.5699 11.9924 19.5699 14.9704 19.5699 17.9546Z" fill="#A7A4A4" />
</svg>