<svg width="20" height="21" viewBox="0 0 20 21" fill="none" xmlns="http://www.w3.org/2000/svg">
    <path d="M4.89266 7.10132C4.51638 5.2871 4.97329 3.72149 6.18277 2.39106C7.23099 1.23533 8.57486 0.650748 10.1405 0.657467C11.827 0.664186 13.2314 1.3294 14.2863 2.63967C15.3345 3.93651 15.7242 5.42148 15.3547 7.10804C15.4555 7.10804 15.5495 7.10804 15.6369 7.10804C16.6381 7.10804 17.6325 7.10804 18.6337 7.10804C19.3527 7.10804 19.8029 7.55152 19.8029 8.26377C19.8029 11.7914 19.8029 15.3191 19.8029 18.84C19.8029 19.559 19.3594 20.0025 18.6404 20.0025C12.9626 20.0025 7.29147 20.0025 1.61362 20.0025C0.894649 20.0025 0.451172 19.559 0.451172 18.84C0.451172 15.3124 0.451172 11.7847 0.451172 8.26377C0.451172 7.5448 0.894649 7.10804 1.62034 7.10804C2.70215 7.10132 3.78397 7.10132 4.89266 7.10132ZM17.6325 9.27839C17.5922 9.27167 17.5586 9.25823 17.525 9.25823C16.5776 9.25823 15.6302 9.25151 14.676 9.26495C14.5954 9.26495 14.4879 9.35902 14.4476 9.43965C13.4733 11.4151 12.3175 13.2831 11.0879 15.1108C10.5503 15.9171 9.68355 15.9171 9.146 15.1108C7.91636 13.2831 6.76064 11.4151 5.79977 9.43293C5.73258 9.29855 5.65867 9.25823 5.51084 9.25823C4.74483 9.26495 3.98555 9.25823 3.21954 9.25823C3.01796 9.25823 2.8231 9.25823 2.62152 9.25823C2.62152 12.1408 2.62152 14.9898 2.62152 17.8321C7.63415 17.8321 12.6266 17.8321 17.6325 17.8321C17.6325 14.9697 17.6325 12.1274 17.6325 9.27839ZM10.08 12.7053C10.9468 11.5764 12.7274 8.27721 13.1306 7.03413C13.2381 6.70488 13.3322 6.34875 13.3389 6.00607C13.359 3.93651 11.35 2.39778 9.34087 2.89501C7.61399 3.33177 6.41123 5.2535 7.10332 6.98709C7.35194 7.61871 7.60056 8.25033 7.92308 8.84835C8.60846 10.1317 9.34087 11.3883 10.08 12.7053Z" fill="#A7A4A4" />
</svg>