<svg width="16" height="22" viewBox="0 0 16 22" fill="none" xmlns="http://www.w3.org/2000/svg">
    <path fill-rule="evenodd" clip-rule="evenodd" d="M12.0036 7.7761C11.5854 9.70638 9.8095 11.0254 7.80201 10.9482C5.89747 10.8774 4.22456 9.39753 3.95432 7.50586C3.89828 7.12651 3.88845 6.74427 3.87645 6.27787C3.87054 6.04813 3.86411 5.79797 3.85137 5.51767C3.86405 5.39448 3.87214 5.24783 3.8811 5.08547C3.90395 4.67118 3.93245 4.1546 4.05727 3.6646C4.54627 1.72788 6.38004 0.505372 8.4197 0.672663C10.3049 0.83352 11.9328 2.39705 12.0808 4.31446C12.1709 5.45976 12.2481 6.63723 12.0036 7.7761ZM8.00791 2.71233C6.98486 2.70589 6.08406 3.478 5.97468 4.50105C5.9439 4.78681 5.95218 5.07858 5.96051 5.37225C5.96437 5.50839 5.96824 5.64493 5.96824 5.78147C5.96824 5.92188 5.96438 6.06228 5.96053 6.20248C5.95219 6.5056 5.94388 6.80777 5.97468 7.10693C6.07763 8.12998 6.96556 8.88923 8.00791 8.88923C9.05026 8.88279 9.95749 8.12355 10.0283 7.09406C10.0926 6.23831 10.0926 5.36968 10.0283 4.51392C9.95106 3.48444 9.04383 2.71876 8.00791 2.71233ZM14.5001 14.9696C14.944 15.4393 15.195 16.0055 15.2014 16.6618C15.2022 16.7503 15.2031 16.8388 15.204 16.9272C15.2104 17.5465 15.2167 18.1658 15.1886 18.7851C15.1499 20.117 14.0819 21.2044 12.75 21.2302C11.6373 21.2482 10.5278 21.2441 9.41927 21.2401C8.94441 21.2383 8.46972 21.2366 7.99504 21.2366V21.243C7.48697 21.243 6.97819 21.2437 6.46917 21.2444C5.45041 21.2459 4.43069 21.2473 3.41384 21.243C2.08195 21.2366 1.02673 20.3615 0.833699 19.0747C0.780726 18.7145 0.78881 18.3499 0.796912 17.9845C0.798651 17.9061 0.800391 17.8277 0.801528 17.7492C0.802693 17.6583 0.803437 17.5675 0.804179 17.477C0.807531 17.0678 0.810855 16.6621 0.853002 16.2565C0.904476 15.7675 1.14254 15.3428 1.48999 14.9889C1.51751 14.9609 1.54502 14.9329 1.57254 14.9048C1.90552 14.5654 2.2406 14.2239 2.60312 13.9208C3.29159 13.3546 4.10231 13.0393 4.99667 13.0329C7.00416 13.02 9.00522 13.0136 11.0063 13.0329C12.0229 13.0393 12.9044 13.4318 13.6443 14.1203C13.9403 14.3905 14.2234 14.6801 14.5001 14.9696ZM13.1567 18.2051C13.1582 18.0228 13.1596 17.8395 13.1553 17.6591C13.1457 16.9602 13.1872 16.7261 13.1103 16.5415C13.0328 16.3555 12.8353 16.2196 12.3446 15.7095C11.9199 15.2785 11.4052 15.0661 10.8068 15.0661H5.21544C4.61705 15.0661 4.10231 15.2849 3.67765 15.7095C3.6133 15.7739 3.54968 15.8389 3.48605 15.904C3.3588 16.0341 3.23154 16.1642 3.09856 16.2886C2.93127 16.4495 2.86049 16.6361 2.86049 16.8677C2.86478 17.2278 2.86335 17.585 2.86193 17.9432C2.86121 18.1226 2.86049 18.3023 2.86049 18.4827C2.86049 19.0168 3.02778 19.1905 3.56183 19.1905H7.99504H12.454C12.9816 19.1905 13.1553 19.0168 13.1553 18.4763C13.1553 18.3864 13.156 18.2959 13.1567 18.2051Z" fill="#A7A4A4" />
</svg>