<svg width="40" height="39" viewBox="0 0 40 39" fill="none" xmlns="http://www.w3.org/2000/svg">
<path fill-rule="evenodd" clip-rule="evenodd" d="M4.71857 3.71992C2.24209 6.19611 1.004 9.44829 1.004 12.7008H0.998047V33.3996H1.00162C1.07571 36.4533 3.54504 38.9223 6.59936 38.9964V39H30.5069V38.9938C30.5608 38.9946 30.6149 38.9955 30.6691 38.9955C33.0593 38.9955 35.4495 38.0859 37.2689 36.2664C40.655 32.881 40.8898 27.5201 37.9747 23.8594L22.682 3.71992C20.2829 1.32111 17.0932 0 13.7003 0C10.3074 0 7.11768 1.32111 4.71857 3.71992ZM13.7003 2.28635C16.4824 2.28635 19.0981 3.36971 21.0652 5.33679C25.1261 9.39741 25.1261 16.0041 21.0652 20.0647C19.0981 22.0318 16.4824 23.1152 13.7003 23.1152C10.9182 23.1152 8.30251 22.0318 6.33543 20.0647C2.27422 16.0041 2.27422 9.39741 6.33543 5.33679C8.30251 3.36971 10.9182 2.28635 13.7003 2.28635ZM35.6521 24.685C38.3996 27.4323 38.3996 31.9026 35.6521 34.6499C32.9045 37.3971 28.4339 37.3971 25.6861 34.6499C22.9385 31.9026 22.9385 27.4323 25.6861 24.685C27.0598 23.3116 28.8647 22.6245 30.6691 22.6245C32.474 22.6245 34.278 23.3113 35.6521 24.685ZM10.1958 33.2585C10.1958 35.1637 8.64558 36.7137 6.7401 36.7137C4.83491 36.7137 3.28469 35.1637 3.28469 33.2585C3.28469 31.3534 4.83491 29.8034 6.7401 29.8034C8.64558 29.8034 10.1958 31.3534 10.1958 33.2585ZM6.7401 27.5171C5.44398 27.5171 4.24696 27.9494 3.28469 28.6766V19.9722C3.70453 20.573 4.18239 21.1454 4.71827 21.6813C7.11739 24.0804 10.3074 25.4015 13.7003 25.4015C17.0929 25.4015 20.2829 24.0801 22.682 21.6813C25.2508 19.1129 26.4868 15.709 26.3907 12.3363L32.5963 20.5393C29.6128 19.9145 26.3808 20.7571 24.0692 23.0685C20.4302 26.7072 20.4302 32.6277 24.0692 36.2664C24.2251 36.4224 24.3855 36.5711 24.5494 36.7137H11.3229C12.0501 35.7514 12.4824 34.5547 12.4824 33.2585C12.4824 30.0927 9.90659 27.5171 6.7401 27.5171ZM19.5179 12.7005V12.7085C19.5179 13.3399 20.0297 13.8517 20.6611 13.8517C21.2928 13.8517 21.8046 13.3399 21.8046 12.7085V12.7005C21.8046 11.2797 21.4311 9.88156 20.7248 8.65716C20.4094 8.11027 19.7101 7.92251 19.1633 8.23821C18.6161 8.55361 18.4286 9.25255 18.744 9.79944C19.2504 10.6772 19.5179 11.6802 19.5179 12.7005ZM10.7906 17.7382C11.6693 18.247 12.6744 18.5163 13.6971 18.5169C14.3285 18.5172 14.84 19.0293 14.8397 19.6607C14.8394 20.2917 14.3276 20.8032 13.6962 20.8032H13.6956C12.2715 20.8023 10.871 20.4265 9.64479 19.7166C9.0982 19.4003 8.91164 18.7011 9.22823 18.1545C9.54452 17.6082 10.2441 17.4216 10.7906 17.7382ZM18.7364 15.6128C18.2249 16.4953 17.4876 17.2312 16.6042 17.7412C16.0576 18.0572 15.8701 18.7561 16.1861 19.303C16.3977 19.6696 16.7821 19.8746 17.1772 19.8746C17.3712 19.8746 17.5676 19.8252 17.7479 19.7211C18.9768 19.0114 20.0027 17.9872 20.7145 16.7599C21.0313 16.2136 20.8454 15.514 20.2991 15.1975C19.7528 14.8809 19.053 15.0668 18.7364 15.6128ZM7.88344 12.6847V12.7007C7.88344 13.7234 8.15213 14.7285 8.66063 15.6075C8.97663 16.1541 8.78977 16.8533 8.24318 17.1693C8.06316 17.2737 7.86618 17.3231 7.67189 17.3231C7.27704 17.3231 6.89321 17.1184 6.68105 16.7521C5.9717 15.5256 5.59679 14.1248 5.59679 12.7007V12.6847C5.59679 12.0533 6.10857 11.5415 6.73997 11.5415C7.37166 11.5415 7.88344 12.0533 7.88344 12.6847ZM16.6163 7.66657C16.7969 7.7716 16.9945 7.82159 17.1894 7.82159C17.5833 7.82159 17.9669 7.61747 18.179 7.25208C18.4962 6.70609 18.3105 6.00655 17.7645 5.68937C16.5389 4.97794 15.1387 4.60065 13.7146 4.59827H13.7125C13.082 4.59827 12.5706 5.10886 12.5694 5.73966C12.5682 6.37105 13.0794 6.88372 13.7108 6.88461C14.7331 6.8864 15.7379 7.15687 16.6163 7.66657ZM10.802 7.65675C9.91825 8.16585 9.18003 8.90079 8.66736 9.78272C8.45521 10.1478 8.07197 10.3516 7.67802 10.3516C7.48283 10.3516 7.28526 10.3013 7.10435 10.1963C6.55865 9.87913 6.37328 9.1793 6.69076 8.6336C7.40398 7.40681 8.43111 6.38385 9.66057 5.67569C10.2081 5.36059 10.907 5.54864 11.2221 6.09553C11.5372 6.64271 11.3491 7.34165 10.802 7.65675ZM10.0738 12.7008C10.0738 14.7003 11.7008 16.3273 13.7009 16.3273C15.701 16.3273 17.328 14.7003 17.328 12.7008C17.328 10.701 15.701 9.07428 13.7009 9.07428C11.7008 9.07428 10.0738 10.701 10.0738 12.7008ZM12.3605 12.7008C12.3605 11.9617 12.9618 11.3606 13.7009 11.3606C14.44 11.3606 15.0414 11.9617 15.0414 12.7008C15.0414 13.4396 14.44 14.0409 13.7009 14.0409C12.9618 14.0409 12.3605 13.4396 12.3605 12.7008ZM30.6697 26.041C32.6698 26.041 34.2968 27.6679 34.2968 29.6674C34.2968 31.6673 32.6695 33.2939 30.6697 33.2939C28.6699 33.2939 27.0426 31.6673 27.0426 29.6674C27.0426 27.6679 28.6699 26.041 30.6697 26.041ZM30.6697 31.0076C31.4088 31.0076 32.0101 30.4066 32.0101 29.6674C32.0101 28.9286 31.4088 28.3273 30.6697 28.3273C29.9306 28.3273 29.3292 28.9286 29.3292 29.6674C29.3292 30.4066 29.9306 31.0076 30.6697 31.0076ZM7.88269 32.8774C7.88269 32.246 7.37091 31.7342 6.73922 31.7342C6.10782 31.7342 5.59604 32.246 5.59604 32.8774V33.6397C5.59604 34.2711 6.10782 34.7829 6.73922 34.7829C7.37091 34.7829 7.88269 34.2711 7.88269 33.6397V32.8774Z" fill="#5B5858"/>
</svg>
