<svg width="45" height="44" viewBox="0 0 45 44" fill="none" xmlns="http://www.w3.org/2000/svg">
<path fill-rule="evenodd" clip-rule="evenodd" d="M43.8028 31.455C43.9277 31.6537 44.0012 31.888 44.0012 32.1398C44.0012 32.1425 44.001 32.1453 44.0008 32.1479C44.0007 32.1505 44.0005 32.1531 44.0005 32.1556C44.0005 32.1581 44.0007 32.1606 44.0008 32.1631C44.001 32.1656 44.0012 32.1682 44.0012 32.1707V38.6742C44.0012 39.3863 43.4241 39.9637 42.7121 39.9637H40.5549C40.4196 42.2119 38.5484 43.9995 36.2666 43.9995C33.9848 43.9995 32.1136 42.2119 31.978 39.9637L17.7227 39.9204C17.6089 42.189 15.7277 43.9995 13.4311 43.9995C11.1349 43.9995 9.25364 42.189 9.1395 39.9204H5.47732C4.7653 39.9204 4.18822 39.3433 4.18822 38.6313V28.4471H1.2891C0.577073 28.4471 0 27.8697 0 27.158C0 26.446 0.577073 25.8689 1.2891 25.8689H4.18822V23.4008H3.09383C2.38181 23.4008 1.80474 22.8234 1.80474 22.1117C1.80474 21.3997 2.38181 20.8226 3.09383 20.8226H4.18822V18.2441H1.2891C0.577073 18.2441 0 17.667 0 16.955C0 16.2433 0.577073 15.6659 1.2891 15.6659H15.6622C14.4218 13.3965 13.459 10.8821 13.459 8.54094C13.459 3.83171 17.2907 0 22.0003 0C26.7098 0 30.5412 3.83171 30.5412 8.54094C30.5412 10.9157 29.5509 13.469 28.2846 15.7636C29.1571 16.0368 29.7922 16.8529 29.7922 17.8144V19.5486H32.8374C36.2075 19.5486 39.1862 21.3087 40.426 24.0333L43.8028 31.455ZM40.6955 30.8507L38.7135 26.495H36.2381C35.5512 26.495 34.9486 26.9133 34.9486 27.3899V30.8507H40.6955ZM27.963 8.54094C27.963 5.25307 25.2881 2.57819 22.0003 2.57819C18.7124 2.57819 16.0375 5.25307 16.0375 8.54094C16.0375 10.9926 17.4364 13.8239 18.9742 16.1963C19.0031 16.2362 19.0303 16.2772 19.0548 16.3205C20.1186 17.9456 21.2382 19.3455 22.0003 20.2439C22.7613 19.3462 23.8799 17.9483 24.943 16.3249C24.9685 16.2792 24.9971 16.2359 25.028 16.1943C26.5651 13.8222 27.963 10.9919 27.963 8.54094ZM10.4232 28.4471H6.76642V37.3422H9.84279C10.6122 36.1766 11.9329 35.4055 13.4311 35.4055C14.9294 35.4055 16.25 36.1766 17.0194 37.3422H27.2141V18.2441H26.7602C24.9283 20.9586 23.0879 22.9167 22.9355 23.0775C22.6921 23.3343 22.3538 23.4794 22.0003 23.4794C21.6464 23.4794 21.3084 23.3343 21.065 23.0775C20.9122 22.9167 19.0723 20.9586 17.2403 18.2441H6.76642V20.8223H14.6497C15.3614 20.8223 15.9388 21.3997 15.9388 22.1114C15.9388 22.8234 15.3614 23.4005 14.6497 23.4005H6.76642V25.8685H10.4232C11.1352 25.8685 11.7123 26.446 11.7123 27.1576C11.7123 27.8697 11.1352 28.4471 10.4232 28.4471ZM11.7123 39.7025C11.7123 40.6502 12.4834 41.4213 13.4311 41.4213C14.3788 41.4213 15.1499 40.6502 15.1499 39.7025C15.1499 38.7548 14.3788 37.9837 13.4311 37.9837C12.4834 37.9837 11.7123 38.7548 11.7123 39.7025ZM34.5475 39.7025C34.5475 40.6502 35.3186 41.4213 36.2666 41.4213C37.2143 41.4213 37.9854 40.6502 37.9854 39.7025C37.9854 39.542 37.9619 39.3873 37.9203 39.2399C37.8817 39.1607 37.8511 39.0774 37.829 38.9901C37.5574 38.3973 36.9602 37.9837 36.2666 37.9837C35.573 37.9837 34.9755 38.3973 34.7042 38.9901C34.6821 39.0774 34.6515 39.1607 34.6126 39.2399C34.5713 39.3873 34.5475 39.542 34.5475 39.7025ZM36.2666 35.4055C37.783 35.4055 39.1174 36.1958 39.8825 37.3852H41.423V33.4292H33.6595C32.9478 33.4292 32.3704 32.8518 32.3704 32.1401V27.3899C32.3704 25.4748 34.1053 23.9168 36.2381 23.9168H37.2744C36.2324 22.812 34.5982 22.1268 32.8374 22.1268H29.7922V37.3852H32.6507C33.4158 36.1958 34.7502 35.4055 36.2666 35.4055ZM24.5783 8.49089C24.5783 9.91259 23.4218 11.0691 22.0001 11.0691C20.5784 11.0691 19.4219 9.91259 19.4219 8.49089C19.4219 7.06919 20.5784 5.91269 22.0001 5.91269C23.4218 5.91269 24.5783 7.06919 24.5783 8.49089Z" fill="#5B5858"/>
</svg>
