<svg width="43" height="43" viewBox="0 0 43 43" fill="none" xmlns="http://www.w3.org/2000/svg">
<path fill-rule="evenodd" clip-rule="evenodd" d="M42.2029 18.7843C42.2029 17.939 41.9193 17.159 41.443 16.5334L36.3172 2.4504C35.6149 0.520896 33.4739 -0.477493 31.5444 0.224813L3.55067 10.4137C1.62117 11.116 0.622783 13.257 1.32509 15.1865L1.53826 15.7721C0.606978 16.4497 0 17.5472 0 18.7844L8.27547e-05 38.6446C8.27547e-05 40.6979 1.67057 42.3684 3.72387 42.3684L38.4792 42.3683C40.5325 42.3683 42.203 40.6978 42.203 38.6445L42.2029 18.7843ZM38.2651 15.0606H29.496L37.2393 12.2422L38.2651 15.0606ZM35.5412 7.57665L36.3902 9.90939L22.2376 15.0606H14.9792L35.5412 7.57665ZM4.3997 12.7465L32.3935 2.55756C33.0367 2.32346 33.7503 2.65628 33.9844 3.29942L34.6921 5.24382L7.72074 15.0606H3.92107L3.65784 14.3374C3.42373 13.6943 3.75656 12.9806 4.3997 12.7465ZM38.4792 39.8858L3.72387 39.8859C3.03944 39.8859 2.48261 39.3291 2.48261 38.6446L2.48253 18.7844C2.48253 18.1 3.03936 17.5432 3.72379 17.5432L38.4791 17.5431C39.1636 17.5431 39.7204 18.0999 39.7204 18.7843L39.7205 38.6445C39.7205 39.3291 39.1637 39.8858 38.4792 39.8858ZM6.20611 29.9558C5.5206 29.9558 4.96484 30.5115 4.96484 31.197C4.96484 31.8826 5.5206 32.4383 6.20611 32.4383H9.51614C10.2016 32.4383 10.7574 31.8826 10.7574 31.197C10.7574 30.5115 10.2016 29.9558 9.51614 29.9558H6.20611ZM6.20611 34.9208H14.4812C15.1667 34.9208 15.7225 35.4766 15.7225 36.1621C15.7225 36.8476 15.1667 37.4034 14.4812 37.4034H6.20611C5.5206 37.4034 4.96484 36.8476 4.96484 36.1621C4.96484 35.4766 5.5206 34.9208 6.20611 34.9208ZM17.7915 29.9558H14.4815C13.796 29.9558 13.2402 30.5115 13.2402 31.1971C13.2402 31.8826 13.796 32.4383 14.4815 32.4383H17.7915C18.477 32.4383 19.0328 31.8826 19.0328 31.1971C19.0328 30.5115 18.477 29.9558 17.7915 29.9558ZM22.7569 29.9558H26.0669C26.7524 29.9558 27.3082 30.5115 27.3082 31.197C27.3082 31.8826 26.7524 32.4383 26.0669 32.4383H22.7569C22.0714 32.4383 21.5156 31.8826 21.5156 31.197C21.5156 30.5115 22.0714 29.9558 22.7569 29.9558ZM34.3423 29.9557H31.0323C30.3468 29.9557 29.791 30.5114 29.791 31.197C29.791 31.8825 30.3468 32.4382 31.0323 32.4382H34.3423C35.0278 32.4382 35.5836 31.8825 35.5836 31.197C35.5836 30.5114 35.0278 29.9557 34.3423 29.9557ZM14.4812 27.4733H6.20611C5.5206 27.4733 4.96484 26.9175 4.96484 26.232V21.267C4.96484 20.5815 5.5206 20.0257 6.20611 20.0257H14.4812C15.1667 20.0257 15.7225 20.5815 15.7225 21.267V26.232C15.7225 26.9175 15.1667 27.4733 14.4812 27.4733ZM13.2399 22.5082H7.44737V24.9907H13.2399V22.5082Z" fill="#5B5858"/>
</svg>
