<svg width="44" height="39" viewBox="0 0 44 39" fill="none" xmlns="http://www.w3.org/2000/svg">
<path fill-rule="evenodd" clip-rule="evenodd" d="M42.2025 2.09808e-05C41.4991 2.09808e-05 40.9288 0.570307 40.9288 1.27374V2.55807H21.7381C12.5727 2.55807 5.1161 10.0147 5.1161 19.1801C5.1161 20.5023 5.27217 21.7887 5.56529 23.0225H2.54743V21.3082C2.54743 20.6048 1.97715 20.0345 1.27372 20.0345C0.570285 20.0345 0 20.6048 0 21.3082V37.5163C0 38.2197 0.570285 38.79 1.27372 38.79C1.97715 38.79 2.54743 38.2197 2.54743 37.5163V35.802H21.7381C30.9035 35.802 38.3601 28.3454 38.3601 19.18C38.3601 17.8776 38.2101 16.5913 37.9128 15.3376H40.9288V16.6219C40.9288 17.3254 41.4991 17.8957 42.2025 17.8957C42.9059 17.8957 43.4762 17.3254 43.4762 16.6219V1.27374C43.4762 0.570307 42.9059 2.09808e-05 42.2025 2.09808e-05ZM2.54743 33.2547V25.5699H6.39414C7.72433 28.7521 10.0165 31.4352 12.9054 33.2547H2.54743ZM36.2119 12.7903C35.7984 12.7903 35.4106 12.9909 35.1719 13.3286C34.9331 13.6662 34.8731 14.0986 35.0109 14.4885C35.5429 15.9934 35.8126 17.5719 35.8126 19.1801C35.8126 26.9408 29.4988 33.2547 21.738 33.2547C13.9773 33.2547 7.66353 26.9408 7.66353 19.1801C7.66353 11.4194 13.9773 5.1055 21.7381 5.1055H40.9288V12.7903H36.2119ZM29.5006 14.7312C29.4995 14.7291 29.4985 14.727 29.4974 14.7249L29.4974 14.7249C29.4944 14.7187 29.4914 14.7124 29.4878 14.7063C29.4827 14.6975 29.4771 14.6891 29.4714 14.6807C29.4676 14.675 29.4639 14.6694 29.4602 14.6636C27.9048 12.0148 25.0263 10.2324 21.7389 10.2324C18.4515 10.2324 15.5729 12.0148 14.0175 14.6636C14.0139 14.6694 14.0101 14.675 14.0064 14.6806C14.0007 14.689 13.995 14.6975 13.9898 14.7064C13.9863 14.7125 13.9833 14.7188 13.9802 14.725C13.9778 14.7299 13.9755 14.7347 13.9729 14.7395C13.2212 16.0489 12.791 17.5653 12.791 19.1803C12.791 20.7953 13.2212 22.3117 13.9729 23.6211C13.974 23.6231 13.975 23.6252 13.9761 23.6272C13.9775 23.63 13.9788 23.6328 13.9802 23.6356C13.9825 23.6403 13.9848 23.6449 13.9873 23.6496C13.9881 23.6511 13.9889 23.6527 13.9898 23.6542C14.0045 23.6797 14.02 23.7044 14.0361 23.7284C15.5958 26.3598 18.4645 28.1282 21.7389 28.1282C25.0133 28.1282 27.8821 26.3597 29.4418 23.7282C29.4579 23.7043 29.4733 23.6796 29.4879 23.6543C29.4914 23.6482 29.4945 23.6419 29.4975 23.6357C29.4985 23.6336 29.4996 23.6316 29.5006 23.6295C29.502 23.6267 29.5034 23.6239 29.5049 23.6212C30.2566 22.3118 30.6867 20.7954 30.6867 19.1804C30.6867 17.5654 30.2565 16.0489 29.5048 14.7394C29.5033 14.7367 29.5019 14.734 29.5006 14.7312ZM23.0125 25.453V23.7231C23.0125 23.0197 22.4422 22.4494 21.7388 22.4494C21.0354 22.4494 20.4651 23.0197 20.4651 23.7231V25.453C19.0775 25.1717 17.8524 24.4395 16.9474 23.4173L18.4414 22.5547C19.0507 22.203 19.2594 21.4241 18.9076 20.8148C18.5558 20.2056 17.7769 19.9968 17.1677 20.3486L15.6711 21.2127C15.4565 20.5737 15.3384 19.8907 15.3384 19.1803C15.3384 18.4699 15.4565 17.7869 15.6711 17.1479L17.1677 18.012C17.3682 18.1278 17.5872 18.1829 17.8033 18.1829C18.2435 18.1829 18.6717 17.9544 18.9076 17.5458C19.2594 16.9365 19.0507 16.1575 18.4414 15.8059L16.9474 14.9433C17.8523 13.9212 19.0775 13.1889 20.4651 12.9076V14.6375C20.4651 15.3409 21.0354 15.9112 21.7388 15.9112C22.4422 15.9112 23.0125 15.3409 23.0125 14.6375V12.9076C24.4001 13.1889 25.6252 13.9211 26.5302 14.9433L25.0362 15.8059C24.4269 16.1576 24.2182 16.9365 24.57 17.5458C24.8059 17.9545 25.234 18.1829 25.6742 18.1829C25.8903 18.1829 26.1093 18.1279 26.3099 18.012L27.8065 17.1479C28.0212 17.7869 28.1392 18.4699 28.1392 19.1803C28.1392 19.8907 28.0211 20.5737 27.8065 21.2127L26.3099 20.3486C25.7006 19.9968 24.9217 20.2056 24.57 20.8148C24.2182 21.4241 24.4269 22.2031 25.0362 22.5547L26.5302 23.4173C25.6252 24.4395 24.4001 25.1717 23.0125 25.453ZM20.464 19.18C20.4331 18.4922 21.0714 17.9063 21.7377 17.9063C22.4517 17.9063 22.9805 18.4899 23.0114 19.18C23.0422 19.8679 22.4039 20.4538 21.7377 20.4538C21.0236 20.4538 20.4949 19.8701 20.464 19.18Z" fill="#5B5858"/>
</svg>
