<svg width="42" height="43" viewBox="0 0 42 43" fill="none" xmlns="http://www.w3.org/2000/svg">
<path fill-rule="evenodd" clip-rule="evenodd" d="M21.4672 0.109655L41.2754 9.07382C41.7165 9.27338 41.9999 9.71286 42 10.1971V40.8492C42 41.5301 41.448 42.0821 40.7671 42.0821H1.23288C0.552 42.0821 0 41.5301 0 40.8492V10.1971C0 9.71352 0.282575 9.2747 0.722794 9.07464L20.4488 0.110477C20.7722 -0.0364824 21.1434 -0.0368933 21.4672 0.109655ZM29.9999 33.452C29.9999 34.1329 29.4479 34.6849 28.767 34.6849C28.0862 34.6849 27.5342 34.1329 27.5342 33.452V32.2191H25.0684V39.6164H32.4657V32.2191H29.9999V33.452ZM23.8355 29.7534H32.4657V17.4246H9.45197V19.8903H18.0821C18.763 19.8903 19.315 20.4423 19.315 21.1232V39.6164H22.6027V30.9862C22.6027 30.3054 23.1547 29.7534 23.8355 29.7534ZM9.45197 22.3561V29.7534H16.8492V22.3561H14.3835V23.589C14.3835 24.2698 13.8315 24.8218 13.1506 24.8218C12.4697 24.8218 11.9177 24.2698 11.9177 23.589V22.3561H9.45197ZM11.9177 32.2191H9.45197V39.6164H16.8492V32.2191H14.3835V33.452C14.3835 34.1329 13.8315 34.6849 13.1506 34.6849C12.4697 34.6849 11.9177 34.1329 11.9177 33.452V32.2191ZM34.9314 39.6164H39.5342V10.9924L20.9599 2.58659L2.46567 10.991V39.6164H6.98622V16.1917C6.98622 15.5108 7.53822 14.9588 8.2191 14.9588H33.6985C34.3794 14.9588 34.9314 15.5108 34.9314 16.1917V39.6164ZM17.2602 10.8492C16.5793 10.8492 16.0273 10.2972 16.0273 9.61637C16.0273 8.93549 16.5793 8.38349 17.2602 8.38349H24.6574C25.3383 8.38349 25.8903 8.93549 25.8903 9.61637C25.8903 10.2972 25.3383 10.8492 24.6574 10.8492H17.2602Z" fill="#5B5858"/>
</svg>
