<svg width="33" height="43" viewBox="0 0 33 43" fill="none" xmlns="http://www.w3.org/2000/svg">
<path fill-rule="evenodd" clip-rule="evenodd" d="M29.1426 15.2012C31.2265 15.2012 32.9219 16.8966 32.9219 18.9805V39.2207C32.9219 41.3046 31.2265 43 29.1426 43H3.7793C1.69539 43 0 41.3046 0 39.2207V18.9805C0 16.8966 1.69539 15.2012 3.7793 15.2012H6.73496C3.53154 8.31353 8.46462 0 16.462 0C24.4873 0 29.3776 8.33931 26.1889 15.2012H29.1426ZM26.7561 30.7113L30.4023 34.3576V27.0651L26.7561 30.7113ZM30.4023 23.5019V18.9805C30.4023 18.2858 29.8372 17.7207 29.1426 17.7207H24.6984L17.5256 29.0219C17.0312 29.8011 15.8924 29.8002 15.3984 29.0219L13.2722 25.6718L6.46554 32.4785L13.9456 39.9587L30.4023 23.5019ZM23.344 15.153C26.9346 9.22845 22.6095 2.51953 16.462 2.51953C9.95299 2.51953 6.08307 9.74252 9.57791 15.1494C9.58438 15.1593 15.7966 24.9474 16.462 25.9959L23.344 15.153ZM8.22577 17.7207H3.7793C3.08466 17.7207 2.51953 18.2858 2.51953 18.9805V32.8614L11.8887 23.4922L8.22577 17.7207ZM2.51953 36.4245V39.2207C2.51953 39.9153 3.08466 40.4805 3.7793 40.4805H10.9043L4.68389 34.2602L2.51953 36.4245ZM16.9869 40.4805H29.1426C29.8372 40.4805 30.4023 39.9153 30.4023 39.2207V37.9207L24.9745 32.4929L16.9869 40.4805ZM21.5859 10.7101C21.5859 13.535 19.2878 15.8331 16.4629 15.8331C13.638 15.8331 11.3398 13.535 11.3398 10.7101C11.3398 7.88519 13.638 5.58704 16.4629 5.58704C19.2878 5.58704 21.5859 7.88519 21.5859 10.7101ZM19.0664 10.7101C19.0664 9.27454 17.8985 8.10657 16.4629 8.10657C15.0273 8.10657 13.8594 9.27454 13.8594 10.7101C13.8594 12.1456 15.0273 13.3136 16.4629 13.3136C17.8985 13.3136 19.0664 12.1456 19.0664 10.7101Z" fill="#5B5858"/>
</svg>
