<svg width="32" height="42" viewBox="0 0 32 42" fill="none" xmlns="http://www.w3.org/2000/svg">
<path fill-rule="evenodd" clip-rule="evenodd" d="M31.1616 4.98755L16.3877 0.0628966C16.1361 -0.0209655 15.8639 -0.0209655 15.6123 0.0628966L0.838376 4.98755C0.337737 5.15445 0 5.62289 0 6.15066V20.9246C0 27.341 2.70688 32.9883 7.82811 37.2561C11.6553 40.4454 15.4524 41.7331 15.6122 41.7863C15.738 41.8283 15.8691 41.8493 15.9999 41.8493C16.1308 41.8493 16.2618 41.8283 16.3876 41.7863C16.5474 41.7331 20.3446 40.4454 24.1717 37.2561C29.2931 32.9883 32 27.341 32 20.9246V6.15066C32 5.62289 31.6623 5.15437 31.1616 4.98755ZM29.5479 20.9246C29.5479 26.6429 27.2322 31.4861 22.6652 35.3195C19.8617 37.6727 17.0136 38.9163 15.9988 39.3154C14.9938 38.9221 12.1947 37.7028 9.39787 35.3722C4.78905 31.5315 2.45211 26.6706 2.45211 20.9246V7.03432L16 2.51836L29.5479 7.03432V20.9246ZM15.6123 5.31326L5.74259 8.60318C5.24195 8.77008 4.90421 9.2386 4.90421 9.76629V21.0055C4.90421 25.8875 6.86451 30.0472 10.7308 33.369C12.4781 34.8702 14.266 35.8853 15.4582 36.4726C15.629 36.5567 15.8145 36.5988 16 36.5988C16.1855 36.5988 16.371 36.5567 16.5418 36.4726C17.734 35.8853 19.5219 34.8702 21.2692 33.369C25.1355 30.0471 27.0958 25.8874 27.0958 21.0055V9.76629C27.0958 9.23852 26.758 8.77008 26.2574 8.60318L16.3877 5.31326C16.1361 5.22932 15.8639 5.22932 15.6123 5.31326ZM24.6437 10.65V21.0055C24.6437 25.1403 22.9707 28.6742 19.6711 31.509C18.3638 32.6324 17.026 33.4518 16 33.9958C14.974 33.4518 13.6363 32.6324 12.3289 31.509C9.02931 28.6742 7.35632 25.1403 7.35632 21.0055V10.65L16 7.76881L24.6437 10.65ZM10.9763 20.0576C11.4551 19.5788 12.2315 19.5788 12.7102 20.0576L14.4616 21.8091L19.475 18.4669C20.0385 18.0913 20.7996 18.2436 21.1752 18.8069C21.5508 19.3704 21.3987 20.1316 20.8352 20.5072L14.9856 24.407C14.7781 24.5453 14.5413 24.613 14.3059 24.613C13.9894 24.613 13.6756 24.4908 13.4386 24.2538L10.9763 21.7915C10.4975 21.3127 10.4975 20.5364 10.9763 20.0576Z" fill="#5B5858"/>
</svg>
