<svg width="39" height="40" viewBox="0 0 39 40" fill="none" xmlns="http://www.w3.org/2000/svg">
<path fill-rule="evenodd" clip-rule="evenodd" d="M37.9961 16.5873L23.2624 1.85355C22.615 1.20609 21.7542 0.849609 20.8386 0.849609H3.42773C1.53768 0.849609 0 2.38729 0 4.27734V36.4219C0 38.3119 1.53768 39.8496 3.42773 39.8496H21.7852C22.218 39.8496 22.6135 39.6051 22.8072 39.218C25.4147 34.0027 30.8488 30.6328 36.6512 30.6328H37.8574C38.4884 30.6328 39 30.1212 39 29.4902V19.011C39 18.0955 38.6434 17.2347 37.9961 16.5873ZM36.7148 28.3477H36.6512C33.3683 28.3477 30.1407 29.2742 27.3171 31.0272C24.704 32.6495 22.5648 34.9 21.095 37.5645H3.42773C2.79772 37.5645 2.28516 37.0519 2.28516 36.4219V4.27734C2.28516 3.64733 2.79772 3.13477 3.42773 3.13477H20.8386C21.1438 3.13477 21.4307 3.25359 21.6465 3.46947L36.3801 18.2031C36.5959 18.4189 36.7148 18.7058 36.7148 19.011V28.3477ZM34.0212 19.1523L20.7018 5.75691C20.4874 5.54119 20.1958 5.41992 19.8917 5.41992H5.71289C5.08188 5.41992 4.57031 5.93149 4.57031 6.5625V20.3496C4.57031 20.9806 5.08188 21.4922 5.71289 21.4922H33.2109C33.8419 21.4922 34.3535 20.9806 34.3535 20.3496V19.9579C34.3535 19.6561 34.234 19.3664 34.0212 19.1523ZM6.85547 19.207V7.70508H19.4164L30.853 19.207H6.85547ZM5.71289 26.0625H12.5684C13.1994 26.0625 13.7109 26.5741 13.7109 27.2051V28.3477C13.7109 30.8677 11.6607 32.918 9.14062 32.918C6.62055 32.918 4.57031 30.8677 4.57031 28.3477V27.2051C4.57031 26.5741 5.08188 26.0625 5.71289 26.0625ZM6.85547 28.34C6.85547 29.6001 7.88059 30.6328 9.14062 30.6328C10.4007 30.6328 11.4258 29.6001 11.4258 28.34H6.85547Z" fill="#5B5858"/>
</svg>
