<svg width="41" height="41" viewBox="0 0 41 41" fill="none" xmlns="http://www.w3.org/2000/svg">
<path fill-rule="evenodd" clip-rule="evenodd" d="M36.5711 9.30963L40.7598 14.8945C40.9157 15.1024 41 15.3554 41 15.6152V36.5957C41 39.0242 39.0242 41 36.5957 41H18.9785C16.55 41 14.5742 39.0242 14.5742 36.5957V36.1087C14.279 35.9295 14 35.7134 13.7452 35.4586L1.28796 23.0013C-0.429319 21.2841 -0.429319 18.4899 1.28796 16.7727L16.0102 2.05046C16.1939 1.86668 16.4323 1.74745 16.6896 1.71069L28.5807 0.0119917C28.955 -0.0410201 29.3326 0.0843824 29.5999 0.351763L32.148 2.89985L34.696 0.351763C35.1651 -0.117254 35.9257 -0.117254 36.3947 0.351763C36.8638 0.820861 36.8638 1.58144 36.3947 2.05046L33.8467 4.59855L36.3948 7.14664C36.6622 7.41394 36.788 7.79159 36.7346 8.16587L36.5711 9.30963ZM2.98666 18.4714C2.20605 19.252 2.20605 20.522 2.98666 21.3026L15.4439 33.7599C15.822 34.1379 16.3247 34.3462 16.8595 34.3462C17.3942 34.3462 17.897 34.138 18.2751 33.7599L32.7141 19.3208L34.2713 8.42076L32.1478 6.29733L30.4491 7.99603L31.2985 8.84541C31.7676 9.31451 31.7676 10.0751 31.2985 10.5441C31.0641 10.7787 30.7566 10.896 30.4492 10.896C30.1419 10.896 29.8345 10.7787 29.5999 10.5441L26.2024 7.14664C25.7333 6.67754 25.7333 5.91696 26.2024 5.44794C26.6715 4.97892 27.4321 4.97892 27.9011 5.44794L28.7505 6.29733L30.4492 4.59863L28.3258 2.4752L17.4257 4.03232L2.98666 18.4714ZM36.5957 38.5977C37.6996 38.5977 38.5977 37.6996 38.5977 36.5957V16.0156L36.0906 12.6729L35.0357 20.0569C34.9989 20.3142 34.8797 20.5526 34.6959 20.7364L19.9737 35.4586C19.1464 36.286 18.069 36.7134 16.9826 36.7435C17.0586 37.7786 17.9244 38.5977 18.9785 38.5977H36.5957ZM21.9624 10.6405L16.3 27.6278C16.1322 28.1311 15.6635 28.4495 15.1606 28.4494C15.0347 28.4494 14.9066 28.4294 14.7806 28.3875C14.1513 28.1777 13.8112 27.4974 14.0209 26.8681L19.6832 9.88085C19.8931 9.25151 20.5734 8.91142 21.2027 9.12115C21.832 9.33095 22.1721 10.0112 21.9624 10.6405ZM28.3906 18.7544C28.3906 20.7414 26.7741 22.3579 24.7871 22.3579C22.8001 22.3579 21.1836 20.7414 21.1836 18.7544C21.1836 16.7674 22.8001 15.1509 24.7871 15.1509C26.7741 15.1509 28.3906 16.7674 28.3906 18.7544ZM25.9883 18.7544C25.9883 18.0921 25.4494 17.5532 24.7871 17.5532C24.1248 17.5532 23.5859 18.0921 23.5859 18.7544C23.5859 19.4167 24.1248 19.9556 24.7871 19.9556C25.4494 19.9556 25.9883 19.4167 25.9883 18.7544ZM11.1973 15.1509C9.21029 15.1509 7.59375 16.7674 7.59375 18.7544C7.59375 20.7414 9.21029 22.3579 11.1973 22.3579C13.1842 22.3579 14.8008 20.7414 14.8008 18.7544C14.8008 16.7674 13.1843 15.1509 11.1973 15.1509ZM11.1973 19.9556C10.5349 19.9556 9.99609 19.4167 9.99609 18.7544C9.99609 18.0921 10.5349 17.5532 11.1973 17.5532C11.8596 17.5532 12.3984 18.0921 12.3984 18.7544C12.3984 19.4167 11.8597 19.9556 11.1973 19.9556Z" fill="#5B5858"/>
</svg>
