<svg width="43" height="43" viewBox="0 0 43 43" fill="none" xmlns="http://www.w3.org/2000/svg">
<path fill-rule="evenodd" clip-rule="evenodd" d="M27.8749 5.12142C27.8749 6.46735 27.3434 7.68977 26.4812 8.59397C28.8263 9.91379 30.3936 12.4308 30.3937 15.2804V16.5398C30.3937 17.2349 29.8295 17.7991 29.1343 17.7991H16.4566C15.7615 17.7991 15.1973 17.2349 15.1973 16.5398V15.2804C15.1973 12.3737 16.8529 9.89532 19.1559 8.60405C18.2273 7.65778 17.716 6.42612 17.716 5.12142C17.716 2.34492 20.0609 -3.71889e-06 22.8374 -3.71889e-06C25.6349 -3.71889e-06 27.8749 2.34912 27.8749 5.12142ZM25.3561 5.1215C25.3561 3.711 24.2026 2.51881 22.8374 2.51881C21.4513 2.51881 20.2347 3.73535 20.2347 5.1215C20.2347 6.48666 21.4269 7.64023 22.8374 7.64023C24.2261 7.64023 25.3561 6.51017 25.3561 5.1215ZM22.8374 10.159C20.0609 10.159 17.716 12.5039 17.716 15.2804H27.8749C27.8749 12.456 25.6148 10.159 22.8374 10.159ZM36.4441 21.521C37.9352 19.9208 40.2071 20.0224 41.6444 21.207C43.2195 22.5075 43.4051 24.7988 42.2322 26.3614L36.1863 34.423C34.5306 36.6311 31.8935 37.9492 29.1338 37.9492H14.2514C14.301 39.3747 13.537 40.7752 12.1643 41.4611L9.37937 42.854C8.7572 43.1646 8.00077 42.9128 7.68927 42.2906L0.132998 27.1782C-0.177582 26.556 0.0742235 25.7996 0.696391 25.4881L3.48128 24.096C4.57868 23.5477 5.85316 23.562 6.9446 24.1397L9.37265 22.0021C12.6823 19.0896 17.6686 19.0804 20.9883 21.9744C21.1046 22.064 21.2083 22.145 21.302 22.2182C21.9098 22.6929 22.0938 22.8367 22.5281 22.8367H29.1339C30.8273 22.8367 32.2638 23.9566 32.7424 25.4948L36.4441 21.521ZM9.37928 40.038L11.0375 39.2085C11.6596 38.897 11.9115 38.1414 11.6009 37.5193L6.29724 26.9121C5.98574 26.2891 5.23015 26.038 4.60799 26.3487L2.94896 27.1782L9.37928 40.038ZM34.1714 32.9117L40.2171 24.85C40.6009 24.3395 40.5471 23.5931 40.0485 23.1566C39.5715 22.7393 38.7941 22.6939 38.287 23.238L32.7424 29.1898C32.0305 29.9546 31.0229 30.3929 29.9776 30.3929H22.7018C22.0067 30.3929 21.4424 29.8287 21.4424 29.1336C21.4424 28.4384 22.0066 27.8742 22.7018 27.8742H29.1338C29.8281 27.8742 30.3932 27.3091 30.3932 26.6148C30.3932 25.9205 29.8282 25.3555 29.1338 25.3555H22.528C21.6229 25.3555 20.754 25.1229 19.3569 23.8929C16.9851 21.8065 13.4084 21.8065 11.0366 23.8929L8.65308 25.991L13.3724 35.4304H29.1339C31.1052 35.4304 32.9884 34.4893 34.1714 32.9117Z" fill="#5B5858"/>
</svg>
