<svg width="42" height="42" viewBox="0 0 42 42" fill="none" xmlns="http://www.w3.org/2000/svg">
<path d="M41.9997 40.1501C41.9994 38.6678 41.1178 37.3348 39.7538 36.7544L29.2909 32.3029V29.6943C30.3987 28.3036 31.0991 26.6472 31.3337 24.8688H33.4726C35.508 24.8688 37.164 23.2128 37.164 21.1774V15.8853C37.164 14.0242 35.7791 12.4813 33.9859 12.2304C33.72 4.22432 29.2438 0 21 0C12.7562 0 8.28003 4.22432 8.01407 12.2304C6.22092 12.4813 4.836 14.0242 4.836 15.8853V21.1774C4.836 23.2128 6.492 24.8688 8.5274 24.8688H10.6663C10.9009 26.6475 11.6013 28.3039 12.7091 29.6943V32.3029L2.24657 36.7544C0.882156 37.3348 0.000640869 38.6678 0 40.1504V40.7692C0 41.0957 0.129456 41.4088 0.360489 41.6395C0.591202 41.8702 0.904266 42 1.23047 42H40.7695C41.0961 42 41.4091 41.8702 41.6398 41.6395C41.8705 41.4085 42 41.0954 42 40.7692L41.9997 40.1501ZM26.8313 33.1662C26.8322 33.1957 26.9011 36.1821 25.1371 38.0192C24.1685 39.0276 22.7765 39.5387 21 39.5387C19.2299 39.5387 17.8415 39.0312 16.8734 38.0301C15.0883 36.1834 15.1681 33.1921 15.1687 33.1662C15.1697 33.1495 15.17 33.1332 15.17 33.1165V31.8982C16.8549 32.9643 18.8646 33.5369 21 33.5369C23.1354 33.5369 25.1451 32.9643 26.83 31.8982V33.1165C26.83 33.1332 26.8303 33.1495 26.8313 33.1662ZM28.9609 22.9798L26.6201 24.5407C25.8767 25.0364 25.0112 25.2985 24.1172 25.2985H22.036C21.3566 25.2985 20.8055 25.8493 20.8055 26.529C20.8055 27.2086 21.3566 27.7595 22.036 27.7595H24.1172C25.4986 27.7595 26.8364 27.3544 27.9855 26.5879L28.4565 26.2739C27.3462 29.1389 24.5065 31.076 21 31.076C16.4617 31.076 13.0391 27.8316 13.0391 23.529V13.5535C13.5243 11.2983 14.227 9.86497 15.0742 9.40547C15.9179 8.94724 17.1439 9.42373 18.3295 9.8842C19.2533 10.2428 20.1259 10.5818 21 10.5818C21.8822 10.5818 22.7441 10.2392 23.657 9.87683C24.8439 9.40515 25.9651 8.95974 26.7957 9.39297C27.401 9.7086 28.2639 10.6914 28.9609 13.5692V22.9798ZM34.7031 15.8853V21.1774C34.7031 21.8557 34.151 22.4078 33.4726 22.4078H31.4218V14.6549H33.4726C34.151 14.6549 34.7031 15.207 34.7031 15.8853ZM12.6687 5.47531C14.3728 3.47514 17.1756 2.46096 21 2.46096C24.8244 2.46096 27.6272 3.47514 29.3313 5.47531C30.673 7.05026 31.408 9.30837 31.5218 12.1939H31.1443C30.4012 9.55479 29.3701 7.95998 27.9336 7.21079C26.1036 6.25653 24.2431 6.99546 22.7483 7.58955C22.0908 7.85071 21.4108 8.12084 20.9997 8.12084C20.5866 8.12084 19.8919 7.85103 19.2203 7.59019C17.6726 6.98873 15.7462 6.24051 13.9001 7.2422C12.5082 7.99779 11.5004 9.62272 10.8329 12.1939H10.4782C10.5916 9.30837 11.327 7.05026 12.6687 5.47531ZM7.29694 21.1774V15.8853C7.29694 15.207 7.84904 14.6549 8.5274 14.6549H10.5782V22.4078H8.5274C7.84904 22.4078 7.29694 21.8557 7.29694 21.1774ZM3.20979 39.019L12.8501 34.9174C13.066 36.2526 13.6024 38.0695 14.9175 39.539H2.62372C2.75414 39.3112 2.95729 39.1263 3.20979 39.019ZM27.0825 39.539C28.3976 38.0695 28.934 36.2526 29.1499 34.9174L38.7902 39.019C39.0427 39.1263 39.2455 39.3112 39.3763 39.539H27.0825Z" fill="#5B5858"/>
</svg>
